<?xml version="1.0" encoding="UTF-8" standalone="no"?>
<!-- Created using Karbon14, part of koffice: http://www.koffice.org/karbon -->
<svg
   xmlns:dc="http://purl.org/dc/elements/1.1/"
   xmlns:cc="http://web.resource.org/cc/"
   xmlns:rdf="http://www.w3.org/1999/02/22-rdf-syntax-ns#"
   xmlns:svg="http://www.w3.org/2000/svg"
   xmlns="http://www.w3.org/2000/svg"
   xmlns:sodipodi="http://inkscape.sourceforge.net/DTD/sodipodi-0.dtd"
   xmlns:inkscape="http://www.inkscape.org/namespaces/inkscape"
   width="266pt"
   height="210pt"
   id="svg2580"
   sodipodi:version="0.32"
   inkscape:version="0.43"
   sodipodi:docname="SigmoidFunction.svg"
   sodipodi:docbase="/home/christoph/dokumente/Sonstiges/wikipedia/eps"
   version="1.0">
  <metadata
     id="metadata2752">
    <rdf:RDF>
      <cc:Work
         rdf:about="">
        <dc:format>image/svg+xml</dc:format>
        <dc:type
           rdf:resource="http://purl.org/dc/dcmitype/StillImage" />
      </cc:Work>
    </rdf:RDF>
  </metadata>
  <sodipodi:namedview
     inkscape:window-height="714"
     inkscape:window-width="1016"
     inkscape:pageshadow="2"
     inkscape:pageopacity="0.0"
     borderopacity="1.0"
     bordercolor="#666666"
     pagecolor="#ffffff"
     id="base"
     inkscape:zoom="1.7448408"
     inkscape:cx="210.2401"
     inkscape:cy="125.70824"
     inkscape:window-x="0"
     inkscape:window-y="0"
     inkscape:current-layer="svg2580" />
  <defs
     id="defs2582" />
  <g
     id="Layer"
     transform="matrix(1,0,0,-1,0,317)" />
  <g
     id="g3000"
     transform="translate(-51.4415,-22.303)">
    <path
       style="fill:#ffffff"
       id="path2591"
       d="M 54.754,282.465 L 54.754,25.641 L 380.555,25.641 L 380.555,282.465 L 54.754,282.465 L 54.754,282.465 z " />
    <path
       style="fill:none;stroke:#ffffff;stroke-linejoin:round"
       id="path2593"
       d="M 54.754,281.465 L 54.754,24.641 L 380.555,24.641 L 380.555,281.465 L 54.754,281.465" />
    <path
       style="fill:none;stroke:#000000;stroke-linejoin:round"
       id="path2595"
       d="M 54.754,24.641 L 380.555,24.641" />
    <path
       style="fill:none;stroke:#000000;stroke-linejoin:round"
       id="path2597"
       d="M 54.754,281.465 L 380.555,281.465" />
    <path
       style="fill:none;stroke:#000000;stroke-linejoin:round"
       id="path2599"
       d="M 380.555,281.465 L 380.555,24.641" />
    <path
       style="fill:none;stroke:#000000;stroke-linejoin:round"
       id="path2601"
       d="M 54.754,281.465 L 54.754,24.641" />
    <path
       style="fill:none;stroke:#000000;stroke-linejoin:round"
       id="path2603"
       d="M 54.754,281.465 L 380.555,281.465" />
    <path
       style="fill:none;stroke:#000000;stroke-linejoin:round"
       id="path2605"
       d="M 54.754,281.465 L 54.754,24.641" />
    <path
       style="fill:none;stroke:#000000;stroke-linejoin:round"
       id="path2607"
       d="M 54.754,281.465 L 54.754,278.152" />
    <path
       style="fill:none;stroke:#000000;stroke-linejoin:round"
       id="path2609"
       d="M 54.754,24.641 L 54.754,27.883" />
    <path
       style="fill:none;stroke:#000000;stroke-linejoin:round"
       id="path2611"
       d="M 136.117,281.465 L 136.117,278.152" />
    <path
       style="fill:none;stroke:#000000;stroke-linejoin:round"
       id="path2613"
       d="M 136.117,24.641 L 136.117,27.883" />
    <path
       style="fill:none;stroke:#000000;stroke-linejoin:round"
       id="path2615"
       d="M 217.621,281.465 L 217.621,278.152" />
    <path
       style="fill:none;stroke:#000000;stroke-linejoin:round"
       id="path2617"
       d="M 217.621,24.641 L 217.621,27.883" />
    <path
       style="fill:none;stroke:#000000;stroke-linejoin:round"
       id="path2619"
       d="M 299.051,281.465 L 299.051,278.152" />
    <path
       style="fill:none;stroke:#000000;stroke-linejoin:round"
       id="path2621"
       d="M 299.051,24.641 L 299.051,27.883" />
    <path
       style="fill:none;stroke:#000000;stroke-linejoin:round"
       id="path2623"
       d="M 380.555,281.465 L 380.555,278.152" />
    <path
       style="fill:none;stroke:#000000;stroke-linejoin:round"
       id="path2625"
       d="M 380.555,24.641 L 380.555,27.883" />
    <path
       style="fill:none;stroke:#000000;stroke-linejoin:round"
       id="path2627"
       d="M 54.754,281.465 L 57.996,281.465" />
    <path
       style="fill:none;stroke:#000000;stroke-linejoin:round"
       id="path2629"
       d="M 380.555,281.465 L 377.242,281.465" />
    <path
       style="fill:none;stroke:#000000;stroke-linejoin:round"
       id="path2631"
       d="M 54.754,217.242 L 57.996,217.242" />
    <path
       style="fill:none;stroke:#000000;stroke-linejoin:round"
       id="path2633"
       d="M 380.555,217.242 L 377.242,217.242" />
    <path
       style="fill:none;stroke:#000000;stroke-linejoin:round"
       id="path2635"
       d="M 54.754,153.016 L 57.996,153.016" />
    <path
       style="fill:none;stroke:#000000;stroke-linejoin:round"
       id="path2637"
       d="M 380.555,153.016 L 377.242,153.016" />
    <path
       style="fill:none;stroke:#000000;stroke-linejoin:round"
       id="path2639"
       d="M 54.754,88.793 L 57.996,88.793" />
    <path
       style="fill:none;stroke:#000000;stroke-linejoin:round"
       id="path2641"
       d="M 380.555,88.793 L 377.242,88.793" />
    <path
       style="fill:none;stroke:#000000;stroke-linejoin:round"
       id="path2643"
       d="M 54.754,24.641 L 57.996,24.641" />
    <path
       style="fill:none;stroke:#000000;stroke-linejoin:round"
       id="path2645"
       d="M 380.555,24.641 L 377.242,24.641" />
    <path
       style="fill:none;stroke:#000000;stroke-linejoin:round"
       id="path2647"
       d="M 54.754,24.641 L 380.555,24.641" />
    <path
       style="fill:none;stroke:#000000;stroke-linejoin:round"
       id="path2649"
       d="M 54.754,281.465 L 380.555,281.465" />
    <path
       style="fill:none;stroke:#000000;stroke-linejoin:round"
       id="path2651"
       d="M 380.555,281.465 L 380.555,24.641" />
    <path
       style="fill:none;stroke:#000000;stroke-linejoin:round"
       id="path2653"
       d="M 54.754,281.465 L 54.754,24.641" />
    <path
       style="fill:none;stroke:#000000;stroke-linejoin:round"
       id="path2655"
       d="M 217.812,282.465 L 217.812,25.641" />
    <path
       style="fill:none;stroke:#000000;stroke-linejoin:round"
       id="path2657"
       d="M 217.812,282.465 L 217.812,25.641" />
    <path
       style="fill:none;stroke:#000000;stroke-linejoin:round"
       id="path2659"
       d="M 217.812,281.465 L 217.812,278.152" />
    <path
       style="fill:none;stroke:#000000;stroke-linejoin:round"
       id="path2661"
       d="M 217.812,24.641 L 217.812,27.883" />
    <path
       style="fill:none;stroke:#000000;stroke-linejoin:round"
       id="path2663"
       d="M 217.812,281.465 L 221.055,281.465" />
    <path
       style="fill:none;stroke:#000000;stroke-linejoin:round"
       id="path2665"
       d="M 217.812,217.242 L 221.055,217.242" />
    <path
       style="fill:none;stroke:#000000;stroke-linejoin:round"
       id="path2667"
       d="M 217.812,153.016 L 221.055,153.016" />
    <path
       style="fill:#000000;fill-rule:evenodd"
       id="path2669"
       d="M 203.773,149.703 C 202.262,149.703 201.398,151 201.398,153.234 C 201.398,155.609 202.262,156.906 203.848,156.906 C 205.359,156.906 206.223,155.609 206.223,153.305 C 206.223,151 205.359,149.703 203.773,149.703 L 203.773,149.703 L 203.773,149.703 z M 202.332,153.09 C 202.406,151.359 202.91,150.496 203.848,150.496 C 204.781,150.496 205.285,151.434 205.285,153.379 C 205.285,155.105 204.781,156.113 203.773,156.113 C 202.836,156.113 202.332,155.105 202.332,153.305 C 202.332,153.234 202.332,153.16 202.332,153.09 L 202.332,153.09 L 202.332,153.09 z " />
    <path
       style="fill:#000000"
       id="path2671"
       d="M 207.445,155.68 L 207.445,156.688 L 208.527,156.688 L 208.527,155.68 L 207.445,155.68 L 207.445,155.68 z " />
    <path
       style="fill:#000000"
       id="path2673"
       d="M 210.469,149.848 L 209.965,153.594 L 210.758,153.664 C 211.117,153.16 211.551,152.945 212.055,152.945 C 212.918,152.945 213.566,153.594 213.566,154.527 C 213.566,155.465 212.988,156.113 212.055,156.113 C 211.191,156.113 210.688,155.754 210.613,154.961 L 209.68,154.961 C 209.75,155.32 209.75,155.465 209.895,155.754 C 210.184,156.473 210.973,156.906 212.055,156.906 C 213.566,156.906 214.5,155.898 214.5,154.387 C 214.5,153.16 213.492,152.152 212.199,152.152 C 211.695,152.152 211.332,152.297 210.828,152.586 L 211.191,150.715 L 214.141,150.715 L 214.141,149.848 L 210.469,149.848 L 210.469,149.848 z " />
    <path
       style="fill:none;stroke:#000000;stroke-linejoin:round"
       id="path2675"
       d="M 217.812,88.793 L 221.055,88.793" />
    <path
       style="fill:#000000"
       id="path2677"
       d="M 212.988,85.41 L 212.27,85.41 C 212.125,85.914 212.055,86.199 211.836,86.344 C 211.551,86.633 211.117,86.777 210.398,86.777 L 210.398,87.496 L 212.055,87.496 L 212.055,92.465 L 212.988,92.465 L 212.988,85.41 L 212.988,85.41 z " />
    <path
       style="fill:none;stroke:#000000;stroke-linejoin:round"
       id="path2679"
       d="M 217.812,24.641 L 221.055,24.641" />
    <path
       style="fill:none;stroke:#000000;stroke-linejoin:round"
       id="path2681"
       d="M 217.812,282.465 L 217.812,25.641" />
    <path
       style="fill:none;stroke:#000000;stroke-linejoin:round"
       id="path2683"
       d="M 54.754,217.348 L 380.555,217.348" />
    <path
       style="fill:none;stroke:#000000;stroke-linejoin:round"
       id="path2685"
       d="M 54.754,217.348 L 380.555,217.348" />
    <path
       style="fill:none;stroke:#000000;stroke-linejoin:round"
       id="path2687"
       d="M 54.754,217.348 L 54.754,214.035" />
    <path
       style="fill:none;stroke:#000000;stroke-linejoin:round"
       id="path2689"
       d="M 136.117,217.348 L 136.117,214.035" />
    <path
       style="fill:#000000"
       id="path2691"
       d="M 123.805,226.203 L 123.805,227.137 L 126.324,227.137 L 126.324,226.203 L 123.805,226.203 L 123.805,226.203 z " />
    <path
       style="fill:#000000;fill-rule:evenodd"
       id="path2693"
       d="M 129.492,222.387 C 127.98,222.387 127.117,223.684 127.117,225.984 C 127.117,228.289 127.906,229.656 129.492,229.656 C 131.074,229.656 131.941,228.289 131.941,226.059 C 131.941,223.684 131.074,222.387 129.492,222.387 L 129.492,222.387 L 129.492,222.387 z M 128.051,225.77 C 128.125,224.043 128.555,223.18 129.492,223.18 C 130.5,223.18 130.934,224.188 130.934,226.059 C 130.934,227.859 130.43,228.867 129.492,228.867 C 128.555,228.867 128.051,227.859 128.051,226.059 C 128.051,225.984 128.051,225.914 128.051,225.77 L 128.051,225.77 L 128.051,225.77 z " />
    <path
       style="fill:#000000"
       id="path2695"
       d="M 133.164,228.363 L 133.164,229.441 L 134.172,229.441 L 134.172,228.363 L 133.164,228.363 L 133.164,228.363 z " />
    <path
       style="fill:#000000"
       id="path2697"
       d="M 136.188,222.531 L 135.613,226.348 L 136.402,226.348 C 136.836,225.914 137.195,225.699 137.699,225.699 C 138.637,225.699 139.285,226.348 139.285,227.281 C 139.285,228.219 138.637,228.867 137.699,228.867 C 136.906,228.867 136.402,228.434 136.332,227.641 L 135.395,227.641 C 135.469,228.074 135.469,228.219 135.539,228.434 C 135.898,229.227 136.621,229.656 137.699,229.656 C 139.211,229.656 140.219,228.648 140.219,227.137 C 140.219,225.844 139.211,224.906 137.914,224.906 C 137.41,224.906 136.98,225.051 136.547,225.34 L 136.836,223.395 L 139.789,223.395 L 139.789,222.531 L 136.188,222.531 L 136.188,222.531 z " />
    <path
       style="fill:none;stroke:#000000;stroke-linejoin:round"
       id="path2699"
       d="M 217.621,217.348 L 217.621,214.035" />
    <path
       style="fill:none;stroke:#000000;stroke-linejoin:round"
       id="path2701"
       d="M 299.051,217.348 L 299.051,214.035" />
    <path
       style="fill:#000000;fill-rule:evenodd"
       id="path2703"
       d="M 294.949,222.387 C 293.363,222.387 292.5,223.684 292.5,225.984 C 292.5,228.289 293.363,229.656 294.949,229.656 C 296.461,229.656 297.324,228.289 297.324,226.059 C 297.324,223.684 296.461,222.387 294.949,222.387 L 294.949,222.387 L 294.949,222.387 z M 293.438,225.77 C 293.508,224.043 294.012,223.18 294.949,223.18 C 295.883,223.18 296.387,224.188 296.387,226.059 C 296.387,227.859 295.883,228.867 294.949,228.867 C 293.941,228.867 293.438,227.859 293.438,226.059 C 293.438,225.984 293.438,225.914 293.438,225.77 L 293.438,225.77 L 293.438,225.77 z " />
    <path
       style="fill:#000000"
       id="path2705"
       d="M 298.547,228.363 L 298.547,229.441 L 299.629,229.441 L 299.629,228.363 L 298.547,228.363 L 298.547,228.363 z " />
    <path
       style="fill:#000000"
       id="path2707"
       d="M 301.57,222.531 L 301.066,226.348 L 301.859,226.348 C 302.219,225.914 302.652,225.699 303.156,225.699 C 304.02,225.699 304.668,226.348 304.668,227.281 C 304.668,228.219 304.094,228.867 303.156,228.867 C 302.293,228.867 301.789,228.434 301.715,227.641 L 300.781,227.641 C 300.852,228.074 300.852,228.219 300.996,228.434 C 301.285,229.227 302.074,229.656 303.156,229.656 C 304.668,229.656 305.605,228.648 305.605,227.137 C 305.605,225.844 304.598,224.906 303.301,224.906 C 302.797,224.906 302.438,225.051 302.004,225.34 L 302.293,223.395 L 305.242,223.395 L 305.242,222.531 L 301.57,222.531 L 301.57,222.531 z " />
    <path
       style="fill:none;stroke:#000000;stroke-linejoin:round"
       id="path2709"
       d="M 380.555,217.348 L 380.555,214.035" />
    <path
       style="fill:none;stroke:#000000;stroke-linejoin:round"
       id="path2711"
       d="M 54.754,217.348 L 57.996,217.348" />
    <path
       style="fill:none;stroke:#000000;stroke-linejoin:round"
       id="path2713"
       d="M 380.555,217.348 L 377.242,217.348" />
    <path
       style="fill:none;stroke:#000000;stroke-linejoin:round"
       id="path2715"
       d="M 54.754,217.348 L 380.555,217.348" />
    <path
       style="fill:none;stroke:#000000;stroke-linejoin:round"
       id="path2717"
       d="M 217.812,217.348 L 217.812,214.035" />
    <path
       style="fill:none;stroke:#000000;stroke-linejoin:round"
       id="path2719"
       d="M 217.812,217.348 L 221.055,217.348" />
    <path
       style="fill:#000000;fill-rule:evenodd"
       id="path2721"
       d="M 212.125,222.422 C 210.613,222.422 209.75,223.719 209.75,226.023 C 209.75,228.324 210.613,229.621 212.125,229.621 C 213.711,229.621 214.574,228.324 214.574,226.023 C 214.574,223.719 213.711,222.422 212.125,222.422 L 212.125,222.422 L 212.125,222.422 z M 210.688,225.805 C 210.758,224.078 211.191,223.215 212.125,223.215 C 213.133,223.215 213.637,224.148 213.637,226.094 C 213.637,227.895 213.062,228.828 212.125,228.828 C 211.191,228.828 210.688,227.895 210.688,226.094 C 210.688,225.949 210.688,225.879 210.688,225.805 L 210.688,225.805 L 210.688,225.805 z " />
    <path
       style="fill:none;stroke:#020aff;stroke-linejoin:round"
       id="path2723"
       d="M 355.645,90.664 L 355.715,90.664 L 355.789,90.664 L 355.859,90.664 L 356.004,90.664 L 356.074,90.664 L 356.148,90.664 L 356.219,90.664 L 356.293,90.664 L 356.363,90.52 L 356.508,90.52 L 356.578,90.52 L 356.652,90.52 L 356.723,90.52 L 356.797,90.52 L 356.867,90.52 L 357.012,90.52 L 357.082,90.52 L 357.156,90.52 L 357.227,90.52 L 357.301,90.52 L 357.371,90.52 L 357.516,90.52 L 357.586,90.52 L 357.66,90.52 L 357.73,90.52 L 357.805,90.52 L 357.875,90.449 L 357.949,90.449 L 358.094,90.449 L 358.164,90.449 L 358.234,90.449 L 358.309,90.449 L 358.379,90.449 L 358.453,90.449 L 358.598,90.449 L 358.668,90.449 L 358.738,90.449 L 358.812,90.449 L 358.883,90.449 L 358.957,90.449 L 359.102,90.449 L 359.172,90.449 L 359.242,90.449 L 359.316,90.449 L 359.387,90.449 L 359.461,90.449 L 359.605,90.379 L 359.676,90.379 L 359.746,90.379 L 359.82,90.379 L 359.891,90.379 L 359.965,90.379 L 360.035,90.379 L 360.18,90.379 L 360.25,90.379 L 360.324,90.379 L 360.395,90.379 L 360.469,90.379 L 360.539,90.379 L 360.684,90.379 L 360.758,90.379 L 360.828,90.379 L 360.898,90.379 L 360.973,90.379 L 361.043,90.379 L 361.188,90.379 L 361.262,90.379 L 361.332,90.305 L 361.402,90.305 L 361.477,90.305 L 361.547,90.305 L 361.691,90.305 L 361.766,90.305 L 361.836,90.305 L 361.906,90.305 L 361.98,90.305 L 362.051,90.305 L 362.125,90.305 L 362.27,90.305 L 362.34,90.305 L 362.41,90.305 L 362.484,90.305 L 362.555,90.305 L 362.629,90.305 L 362.773,90.305 L 362.844,90.305 L 362.914,90.305 L 362.988,90.305 L 363.059,90.305 L 363.133,90.234 L 363.277,90.234 L 363.348,90.234 L 363.418,90.234 L 363.492,90.234 L 363.562,90.234 L 363.637,90.234 L 363.781,90.234 L 363.852,90.234 L 363.926,90.234 L 363.996,90.234 L 364.066,90.234 L 364.141,90.234 L 364.211,90.234 L 364.355,90.234 L 364.43,90.234 L 364.5,90.234 L 364.57,90.234 L 364.645,90.234 L 364.715,90.234 L 364.859,90.234 L 364.934,90.234 L 365.004,90.234 L 365.074,90.16 L 365.148,90.16 L 365.219,90.16 L 365.363,90.16 L 365.438,90.16 L 365.508,90.16 L 365.578,90.16 L 365.652,90.16 L 365.723,90.16 L 365.867,90.16 L 365.941,90.16 L 366.012,90.16 L 366.082,90.16 L 366.156,90.16 L 366.227,90.16 L 366.301,90.16 L 366.445,90.16 L 366.516,90.16 L 366.586,90.16 L 366.66,90.16 L 366.73,90.16 L 366.805,90.16 L 366.949,90.16 L 367.02,90.16 L 367.094,90.16 L 367.164,90.016 L 367.234,90.016 L 367.309,90.016 L 367.453,90.016 L 367.523,90.016 L 367.598,90.016 L 367.668,90.016 L 367.738,90.016 L 367.812,90.016 L 367.957,90.016 L 368.027,90.016 L 368.102,90.016 L 368.172,90.016 L 368.242,90.016 L 368.316,90.016 L 368.387,90.016 L 368.531,90.016 L 368.605,90.016 L 368.676,90.016 L 368.746,90.016 L 368.82,90.016 L 368.891,90.016 L 369.035,90.016 L 369.109,90.016 L 369.18,90.016 L 369.25,90.016 L 369.324,89.945 L 369.395,89.945 L 369.539,89.945 L 369.613,89.945 L 369.684,89.945 L 369.758,89.945 L 369.828,89.945 L 369.898,89.945 L 370.043,89.945 L 370.117,89.945 L 370.188,89.945 L 370.262,89.945 L 370.332,89.945 L 370.402,89.945 L 370.547,89.945 L 370.621,89.945 L 370.691,89.945 L 370.766,89.945 L 370.836,89.945 L 370.906,89.945 L 370.98,89.945 L 371.125,89.945 L 371.195,89.945 L 371.27,89.945 L 371.34,89.945 L 371.41,89.945 L 371.484,89.945 L 371.629,89.945 L 371.699,89.945 L 371.773,89.875 L 371.844,89.875 L 371.914,89.875 L 371.988,89.875 L 372.133,89.875 L 372.203,89.875 L 372.277,89.875 L 372.348,89.875 L 372.418,89.875 L 372.492,89.875 L 372.637,89.875 L 372.707,89.875 L 372.781,89.875 L 372.852,89.875 L 372.926,89.875 L 372.996,89.875 L 373.066,89.875 L 373.211,89.875 L 373.285,89.875 L 373.355,89.875 L 373.43,89.875 L 373.5,89.875 L 373.57,89.875 L 373.715,89.875 L 373.789,89.875 L 373.859,89.875 L 373.934,89.875 L 374.004,89.875 L 374.074,89.875 L 374.219,89.875 L 374.293,89.801 L 374.363,89.801 L 374.438,89.801 L 374.508,89.801 L 374.578,89.801 L 374.723,89.801 L 374.797,89.801 L 374.867,89.801 L 374.941,89.801 L 375.012,89.801 L 375.082,89.801 L 375.156,89.801 L 375.301,89.801 L 375.371,89.801 L 375.445,89.801 L 375.516,89.801 L 375.586,89.801 L 375.66,89.801 L 375.805,89.801 L 375.875,89.801 L 375.949,89.801 L 376.02,89.801 L 376.094,89.801 L 376.164,89.801 L 376.309,89.801 L 376.379,89.801 L 376.453,89.801 L 376.523,89.801 L 376.598,89.801 L 376.668,89.801 L 376.812,89.801 L 376.883,89.801 L 376.957,89.801 L 377.027,89.73 L 377.102,89.73 L 377.172,89.73 L 377.242,89.73 L 377.387,89.73 L 377.461,89.73 L 377.531,89.73 L 377.605,89.73 L 377.676,89.73 L 377.746,89.73 L 377.891,89.73 L 377.965,89.73 L 378.035,89.73 L 378.109,89.73 L 378.18,89.73 L 378.25,89.73 L 378.395,89.73 L 378.469,89.73 L 378.539,89.73 L 378.613,89.73 L 378.684,89.73 L 378.758,89.73 L 378.898,89.73 L 378.973,89.73 L 379.043,89.73 L 379.117,89.73 L 379.188,89.73 L 379.262,89.73 L 379.332,89.73 L 379.477,89.73 L 379.547,89.73 L 379.621,89.73 L 379.691,89.73 L 379.766,89.73 L 379.836,89.73 L 379.98,89.656 L 380.051,89.656 L 380.125,89.656 L 380.195,89.656 L 380.27,89.656 L 380.34,89.656 L 380.484,89.656 L 380.555,89.656 L 380.629,89.656" />
    <path
       style="fill:none;stroke:#020aff;stroke-linejoin:round"
       id="path2725"
       d="M 330.73,92.609 L 330.805,92.609 L 330.875,92.609 L 330.949,92.609 L 331.094,92.609 L 331.164,92.609 L 331.234,92.609 L 331.309,92.609 L 331.379,92.535 L 331.453,92.535 L 331.598,92.535 L 331.668,92.535 L 331.738,92.535 L 331.812,92.535 L 331.883,92.535 L 331.957,92.535 L 332.027,92.535 L 332.172,92.465 L 332.242,92.465 L 332.316,92.465 L 332.387,92.465 L 332.461,92.465 L 332.531,92.465 L 332.676,92.465 L 332.746,92.465 L 332.82,92.465 L 332.891,92.395 L 332.965,92.395 L 333.035,92.395 L 333.18,92.395 L 333.25,92.395 L 333.324,92.395 L 333.395,92.395 L 333.469,92.395 L 333.539,92.395 L 333.684,92.395 L 333.758,92.32 L 333.828,92.32 L 333.898,92.32 L 333.973,92.32 L 334.043,92.32 L 334.117,92.32 L 334.262,92.32 L 334.332,92.32 L 334.402,92.32 L 334.477,92.25 L 334.547,92.25 L 334.621,92.25 L 334.766,92.25 L 334.836,92.25 L 334.906,92.25 L 334.98,92.25 L 335.051,92.25 L 335.125,92.25 L 335.27,92.25 L 335.34,92.105 L 335.41,92.105 L 335.484,92.105 L 335.555,92.105 L 335.629,92.105 L 335.773,92.105 L 335.844,92.105 L 335.914,92.105 L 335.988,92.105 L 336.059,92.105 L 336.133,92.031 L 336.277,92.031 L 336.348,92.031 L 336.418,92.031 L 336.492,92.031 L 336.562,92.031 L 336.637,92.031 L 336.707,92.031 L 336.852,92.031 L 336.926,92.031 L 336.996,91.961 L 337.066,91.961 L 337.141,91.961 L 337.211,91.961 L 337.355,91.961 L 337.43,91.961 L 337.5,91.961 L 337.57,91.961 L 337.645,91.961 L 337.715,91.961 L 337.859,91.961 L 337.934,91.891 L 338.004,91.891 L 338.074,91.891 L 338.148,91.891 L 338.219,91.891 L 338.363,91.891 L 338.438,91.891 L 338.508,91.891 L 338.578,91.891 L 338.652,91.891 L 338.723,91.891 L 338.797,91.816 L 338.941,91.816 L 339.012,91.816 L 339.082,91.816 L 339.156,91.816 L 339.227,91.816 L 339.301,91.816 L 339.445,91.816 L 339.516,91.816 L 339.586,91.816 L 339.66,91.816 L 339.73,91.746 L 339.805,91.746 L 339.949,91.746 L 340.02,91.746 L 340.094,91.746 L 340.164,91.746 L 340.234,91.746 L 340.309,91.746 L 340.453,91.746 L 340.523,91.746 L 340.598,91.746 L 340.668,91.602 L 340.738,91.602 L 340.812,91.602 L 340.883,91.602 L 341.027,91.602 L 341.102,91.602 L 341.172,91.602 L 341.242,91.602 L 341.316,91.602 L 341.387,91.602 L 341.531,91.602 L 341.605,91.602 L 341.676,91.527 L 341.746,91.527 L 341.82,91.527 L 341.891,91.527 L 342.035,91.527 L 342.109,91.527 L 342.18,91.527 L 342.25,91.527 L 342.324,91.527 L 342.395,91.527 L 342.539,91.527 L 342.613,91.527 L 342.684,91.457 L 342.758,91.457 L 342.828,91.457 L 342.898,91.457 L 342.973,91.457 L 343.117,91.457 L 343.188,91.457 L 343.262,91.457 L 343.332,91.457 L 343.402,91.457 L 343.477,91.457 L 343.621,91.457 L 343.691,91.457 L 343.766,91.387 L 343.836,91.387 L 343.906,91.387 L 343.98,91.387 L 344.125,91.387 L 344.195,91.387 L 344.27,91.387 L 344.34,91.387 L 344.41,91.387 L 344.484,91.387 L 344.629,91.387 L 344.699,91.387 L 344.773,91.312 L 344.844,91.312 L 344.914,91.312 L 344.988,91.312 L 345.059,91.312 L 345.203,91.312 L 345.277,91.312 L 345.348,91.312 L 345.418,91.312 L 345.492,91.312 L 345.562,91.312 L 345.707,91.312 L 345.781,91.312 L 345.852,91.312 L 345.926,91.242 L 345.996,91.242 L 346.066,91.242 L 346.211,91.242 L 346.285,91.242 L 346.355,91.242 L 346.43,91.242 L 346.5,91.242 L 346.57,91.242 L 346.715,91.242 L 346.789,91.242 L 346.859,91.242 L 346.934,91.242 L 347.004,91.242 L 347.074,91.098 L 347.148,91.098 L 347.293,91.098 L 347.363,91.098 L 347.438,91.098 L 347.508,91.098 L 347.578,91.098 L 347.652,91.098 L 347.797,91.098 L 347.867,91.098 L 347.941,91.098 L 348.012,91.098 L 348.082,91.098 L 348.156,91.098 L 348.301,91.023 L 348.371,91.023 L 348.445,91.023 L 348.516,91.023 L 348.586,91.023 L 348.66,91.023 L 348.805,91.023 L 348.875,91.023 L 348.949,91.023 L 349.02,91.023 L 349.094,91.023 L 349.164,91.023 L 349.234,91.023 L 349.379,91.023 L 349.453,90.953 L 349.523,90.953 L 349.598,90.953 L 349.668,90.953 L 349.738,90.953 L 349.883,90.953 L 349.957,90.953 L 350.027,90.953 L 350.102,90.953 L 350.172,90.953 L 350.242,90.953 L 350.387,90.953 L 350.461,90.953 L 350.531,90.953 L 350.605,90.953 L 350.676,90.953 L 350.746,90.883 L 350.891,90.883 L 350.965,90.883 L 351.035,90.883 L 351.109,90.883 L 351.18,90.883 L 351.25,90.883 L 351.324,90.883 L 351.469,90.883 L 351.539,90.883 L 351.613,90.883 L 351.684,90.883 L 351.758,90.883 L 351.828,90.883 L 351.973,90.883 L 352.043,90.883 L 352.117,90.809 L 352.188,90.809 L 352.262,90.809 L 352.332,90.809 L 352.477,90.809 L 352.547,90.809 L 352.621,90.809 L 352.691,90.809 L 352.766,90.809 L 352.836,90.809 L 352.98,90.809 L 353.051,90.809 L 353.125,90.809 L 353.195,90.809 L 353.27,90.809 L 353.34,90.809 L 353.41,90.738 L 353.555,90.738 L 353.629,90.738 L 353.699,90.738 L 353.773,90.738 L 353.844,90.738 L 353.914,90.738 L 354.059,90.738 L 354.133,90.738 L 354.203,90.738 L 354.277,90.738 L 354.348,90.738 L 354.418,90.738 L 354.562,90.738 L 354.637,90.738 L 354.707,90.738 L 354.781,90.738 L 354.852,90.664 L 354.926,90.664 L 355.066,90.664 L 355.141,90.664 L 355.211,90.664 L 355.285,90.664 L 355.355,90.664 L 355.43,90.664 L 355.5,90.664 L 355.645,90.664 L 355.715,90.664" />
    <path
       style="fill:none;stroke:#020aff;stroke-linejoin:round"
       id="path2727"
       d="M 305.82,96.785 L 305.891,96.785 L 305.965,96.785 L 306.035,96.785 L 306.18,96.715 L 306.25,96.715 L 306.324,96.715 L 306.395,96.715 L 306.469,96.641 L 306.539,96.641 L 306.613,96.641 L 306.758,96.641 L 306.828,96.641 L 306.898,96.57 L 306.973,96.57 L 307.043,96.57 L 307.117,96.57 L 307.262,96.496 L 307.332,96.496 L 307.402,96.496 L 307.477,96.496 L 307.547,96.496 L 307.621,96.352 L 307.766,96.352 L 307.836,96.352 L 307.906,96.352 L 307.98,96.281 L 308.051,96.281 L 308.125,96.281 L 308.27,96.281 L 308.34,96.281 L 308.41,96.211 L 308.484,96.211 L 308.555,96.211 L 308.629,96.211 L 308.699,96.211 L 308.844,96.137 L 308.914,96.137 L 308.988,96.137 L 309.059,96.137 L 309.133,96.066 L 309.203,96.066 L 309.348,96.066 L 309.418,96.066 L 309.492,96.066 L 309.562,95.992 L 309.637,95.992 L 309.707,95.992 L 309.852,95.992 L 309.926,95.992 L 309.996,95.848 L 310.066,95.848 L 310.141,95.848 L 310.211,95.848 L 310.355,95.848 L 310.43,95.777 L 310.5,95.777 L 310.57,95.777 L 310.645,95.777 L 310.715,95.777 L 310.789,95.703 L 310.934,95.703 L 311.004,95.703 L 311.074,95.703 L 311.148,95.703 L 311.219,95.633 L 311.293,95.633 L 311.438,95.633 L 311.508,95.633 L 311.578,95.633 L 311.652,95.562 L 311.723,95.562 L 311.797,95.562 L 311.941,95.562 L 312.012,95.562 L 312.082,95.488 L 312.156,95.488 L 312.227,95.488 L 312.301,95.488 L 312.445,95.488 L 312.516,95.418 L 312.586,95.418 L 312.66,95.418 L 312.73,95.418 L 312.805,95.418 L 312.875,95.273 L 313.02,95.273 L 313.094,95.273 L 313.164,95.273 L 313.234,95.273 L 313.309,95.199 L 313.379,95.199 L 313.523,95.199 L 313.598,95.199 L 313.668,95.199 L 313.738,95.199 L 313.812,95.129 L 313.883,95.129 L 314.027,95.129 L 314.102,95.129 L 314.172,95.129 L 314.242,95.059 L 314.316,95.059 L 314.387,95.059 L 314.531,95.059 L 314.605,95.059 L 314.676,95.059 L 314.746,94.984 L 314.82,94.984 L 314.891,94.984 L 314.965,94.984 L 315.109,94.984 L 315.18,94.914 L 315.25,94.914 L 315.324,94.914 L 315.395,94.914 L 315.469,94.914 L 315.613,94.914 L 315.684,94.77 L 315.758,94.77 L 315.828,94.77 L 315.898,94.77 L 315.973,94.77 L 316.117,94.695 L 316.188,94.695 L 316.262,94.695 L 316.332,94.695 L 316.402,94.695 L 316.477,94.695 L 316.621,94.625 L 316.691,94.625 L 316.766,94.625 L 316.836,94.625 L 316.906,94.625 L 316.98,94.625 L 317.051,94.555 L 317.195,94.555 L 317.27,94.555 L 317.34,94.555 L 317.41,94.555 L 317.484,94.555 L 317.555,94.48 L 317.699,94.48 L 317.773,94.48 L 317.844,94.48 L 317.914,94.48 L 317.988,94.48 L 318.059,94.41 L 318.203,94.41 L 318.277,94.41 L 318.348,94.41 L 318.418,94.41 L 318.492,94.41 L 318.562,94.266 L 318.707,94.266 L 318.781,94.266 L 318.852,94.266 L 318.926,94.266 L 318.996,94.266 L 319.066,94.191 L 319.141,94.191 L 319.285,94.191 L 319.355,94.191 L 319.43,94.191 L 319.5,94.191 L 319.57,94.191 L 319.645,94.121 L 319.789,94.121 L 319.859,94.121 L 319.934,94.121 L 320.004,94.121 L 320.074,94.121 L 320.148,94.051 L 320.293,94.051 L 320.363,94.051 L 320.438,94.051 L 320.508,94.051 L 320.578,94.051 L 320.652,94.051 L 320.797,93.977 L 320.867,93.977 L 320.941,93.977 L 321.012,93.977 L 321.082,93.977 L 321.156,93.977 L 321.227,93.906 L 321.371,93.906 L 321.445,93.906 L 321.516,93.906 L 321.586,93.906 L 321.66,93.906 L 321.73,93.906 L 321.875,93.762 L 321.949,93.762 L 322.02,93.762 L 322.094,93.762 L 322.164,93.762 L 322.234,93.762 L 322.379,93.762 L 322.453,93.688 L 322.523,93.688 L 322.598,93.688 L 322.668,93.688 L 322.738,93.688 L 322.883,93.688 L 322.957,93.617 L 323.027,93.617 L 323.102,93.617 L 323.172,93.617 L 323.242,93.617 L 323.316,93.617 L 323.461,93.617 L 323.531,93.547 L 323.605,93.547 L 323.676,93.547 L 323.746,93.547 L 323.82,93.547 L 323.965,93.547 L 324.035,93.547 L 324.109,93.547 L 324.18,93.473 L 324.25,93.473 L 324.324,93.473 L 324.469,93.473 L 324.539,93.473 L 324.613,93.473 L 324.684,93.473 L 324.758,93.402 L 324.828,93.402 L 324.973,93.402 L 325.043,93.402 L 325.117,93.402 L 325.188,93.402 L 325.262,93.402 L 325.332,93.328 L 325.477,93.328 L 325.547,93.328 L 325.621,93.328 L 325.691,93.328 L 325.766,93.328 L 325.836,93.328 L 325.906,93.328 L 326.051,93.184 L 326.125,93.184 L 326.195,93.184 L 326.27,93.184 L 326.34,93.184 L 326.41,93.184 L 326.555,93.184 L 326.629,93.113 L 326.699,93.113 L 326.773,93.113 L 326.844,93.113 L 326.914,93.113 L 327.059,93.113 L 327.133,93.113 L 327.203,93.113 L 327.277,93.043 L 327.348,93.043 L 327.418,93.043 L 327.562,93.043 L 327.637,93.043 L 327.707,93.043 L 327.781,93.043 L 327.852,93.043 L 327.926,92.969 L 327.996,92.969 L 328.141,92.969 L 328.211,92.969 L 328.285,92.969 L 328.355,92.969 L 328.43,92.969 L 328.5,92.969 L 328.645,92.898 L 328.715,92.898 L 328.789,92.898 L 328.859,92.898 L 328.934,92.898 L 329.004,92.898 L 329.148,92.898 L 329.219,92.898 L 329.293,92.824 L 329.363,92.824 L 329.438,92.824 L 329.508,92.824 L 329.652,92.824 L 329.723,92.824 L 329.797,92.824 L 329.867,92.824 L 329.941,92.824 L 330.012,92.68 L 330.082,92.68 L 330.227,92.68 L 330.301,92.68 L 330.371,92.68 L 330.445,92.68 L 330.516,92.68 L 330.586,92.68 L 330.73,92.609 L 330.805,92.609" />
    <path
       style="fill:none;stroke:#020aff;stroke-linejoin:round"
       id="path2729"
       d="M 280.906,104.922 L 280.98,104.922 L 281.051,104.777 L 281.125,104.777 L 281.195,104.703 L 281.34,104.703 L 281.41,104.633 L 281.484,104.633 L 281.555,104.633 L 281.629,104.562 L 281.699,104.562 L 281.844,104.488 L 281.914,104.488 L 281.988,104.488 L 282.059,104.418 L 282.133,104.418 L 282.203,104.273 L 282.348,104.273 L 282.418,104.199 L 282.492,104.199 L 282.562,104.199 L 282.637,104.129 L 282.707,104.129 L 282.781,104.059 L 282.926,104.059 L 282.996,103.984 L 283.066,103.984 L 283.141,103.984 L 283.211,103.914 L 283.285,103.914 L 283.43,103.77 L 283.5,103.77 L 283.57,103.77 L 283.645,103.695 L 283.715,103.695 L 283.789,103.625 L 283.934,103.625 L 284.004,103.625 L 284.074,103.555 L 284.148,103.555 L 284.219,103.48 L 284.293,103.48 L 284.438,103.48 L 284.508,103.41 L 284.578,103.41 L 284.652,103.266 L 284.723,103.266 L 284.797,103.266 L 284.867,103.191 L 285.012,103.191 L 285.082,103.121 L 285.156,103.121 L 285.227,103.121 L 285.301,103.051 L 285.371,103.051 L 285.516,103.051 L 285.586,102.977 L 285.66,102.977 L 285.73,102.906 L 285.805,102.906 L 285.875,102.906 L 286.02,102.832 L 286.094,102.832 L 286.164,102.688 L 286.234,102.688 L 286.309,102.688 L 286.379,102.617 L 286.523,102.617 L 286.598,102.617 L 286.668,102.547 L 286.738,102.547 L 286.812,102.473 L 286.883,102.473 L 286.957,102.473 L 287.102,102.402 L 287.172,102.402 L 287.242,102.402 L 287.316,102.328 L 287.387,102.328 L 287.461,102.184 L 287.605,102.184 L 287.676,102.184 L 287.746,102.113 L 287.82,102.113 L 287.891,102.113 L 287.965,102.043 L 288.109,102.043 L 288.18,101.969 L 288.25,101.969 L 288.324,101.969 L 288.395,101.898 L 288.469,101.898 L 288.613,101.898 L 288.684,101.824 L 288.758,101.824 L 288.828,101.824 L 288.898,101.68 L 288.973,101.68 L 289.043,101.68 L 289.188,101.609 L 289.262,101.609 L 289.332,101.535 L 289.402,101.535 L 289.477,101.535 L 289.547,101.465 L 289.691,101.465 L 289.766,101.465 L 289.836,101.395 L 289.906,101.395 L 289.98,101.395 L 290.051,101.32 L 290.195,101.32 L 290.27,101.32 L 290.34,101.176 L 290.41,101.176 L 290.484,101.176 L 290.555,101.105 L 290.699,101.105 L 290.773,101.105 L 290.844,101.031 L 290.914,101.031 L 290.988,101.031 L 291.059,100.961 L 291.133,100.961 L 291.277,100.961 L 291.348,100.891 L 291.418,100.891 L 291.492,100.816 L 291.562,100.816 L 291.637,100.816 L 291.781,100.816 L 291.852,100.672 L 291.926,100.672 L 291.996,100.672 L 292.066,100.602 L 292.141,100.602 L 292.285,100.602 L 292.355,100.527 L 292.43,100.527 L 292.5,100.527 L 292.57,100.457 L 292.645,100.457 L 292.789,100.457 L 292.859,100.387 L 292.934,100.387 L 293.004,100.387 L 293.074,100.312 L 293.148,100.312 L 293.293,100.312 L 293.363,100.242 L 293.438,100.242 L 293.508,100.242 L 293.578,100.098 L 293.652,100.098 L 293.723,100.098 L 293.867,100.023 L 293.941,100.023 L 294.012,100.023 L 294.082,99.953 L 294.156,99.953 L 294.227,99.953 L 294.371,99.953 L 294.445,99.883 L 294.516,99.883 L 294.586,99.883 L 294.66,99.809 L 294.73,99.809 L 294.875,99.809 L 294.949,99.738 L 295.02,99.738 L 295.094,99.738 L 295.164,99.594 L 295.234,99.594 L 295.379,99.594 L 295.453,99.594 L 295.523,99.52 L 295.598,99.52 L 295.668,99.52 L 295.738,99.449 L 295.812,99.449 L 295.957,99.449 L 296.027,99.379 L 296.102,99.379 L 296.172,99.379 L 296.242,99.379 L 296.316,99.305 L 296.461,99.305 L 296.531,99.305 L 296.605,99.234 L 296.676,99.234 L 296.746,99.234 L 296.82,99.09 L 296.965,99.09 L 297.035,99.09 L 297.109,99.09 L 297.18,99.016 L 297.25,99.016 L 297.324,99.016 L 297.469,98.945 L 297.539,98.945 L 297.613,98.945 L 297.684,98.945 L 297.758,98.875 L 297.828,98.875 L 297.898,98.875 L 298.043,98.801 L 298.117,98.801 L 298.188,98.801 L 298.262,98.801 L 298.332,98.73 L 298.402,98.73 L 298.547,98.73 L 298.621,98.586 L 298.691,98.586 L 298.766,98.586 L 298.836,98.586 L 298.906,98.512 L 299.051,98.512 L 299.125,98.512 L 299.195,98.512 L 299.27,98.441 L 299.34,98.441 L 299.41,98.441 L 299.555,98.367 L 299.629,98.367 L 299.699,98.367 L 299.773,98.367 L 299.844,98.297 L 299.914,98.297 L 299.988,98.297 L 300.133,98.297 L 300.203,98.227 L 300.277,98.227 L 300.348,98.227 L 300.418,98.152 L 300.492,98.152 L 300.637,98.152 L 300.707,98.152 L 300.781,98.008 L 300.852,98.008 L 300.926,98.008 L 300.996,98.008 L 301.141,97.938 L 301.211,97.938 L 301.285,97.938 L 301.355,97.938 L 301.43,97.863 L 301.5,97.863 L 301.645,97.863 L 301.715,97.793 L 301.789,97.793 L 301.859,97.793 L 301.934,97.793 L 302.004,97.723 L 302.074,97.723 L 302.219,97.723 L 302.293,97.723 L 302.363,97.648 L 302.438,97.648 L 302.508,97.648 L 302.578,97.648 L 302.723,97.504 L 302.797,97.504 L 302.867,97.504 L 302.941,97.504 L 303.012,97.434 L 303.082,97.434 L 303.227,97.434 L 303.301,97.434 L 303.371,97.359 L 303.445,97.359 L 303.516,97.359 L 303.586,97.359 L 303.73,97.289 L 303.805,97.289 L 303.875,97.289 L 303.949,97.289 L 304.02,97.219 L 304.094,97.219 L 304.164,97.219 L 304.309,97.219 L 304.379,97.219 L 304.453,97.145 L 304.523,97.145 L 304.598,97.145 L 304.668,97.145 L 304.812,97 L 304.883,97 L 304.957,97 L 305.027,97 L 305.102,96.93 L 305.172,96.93 L 305.316,96.93 L 305.387,96.93 L 305.461,96.855 L 305.531,96.855 L 305.605,96.855 L 305.676,96.855 L 305.82,96.855 L 305.891,96.785" />
    <path
       style="fill:none;stroke:#020aff;stroke-linejoin:round"
       id="path2731"
       d="M 255.996,118.961 L 256.066,118.961 L 256.141,118.891 L 256.211,118.816 L 256.285,118.816 L 256.43,118.746 L 256.5,118.602 L 256.57,118.602 L 256.645,118.527 L 256.715,118.457 L 256.789,118.387 L 256.859,118.387 L 257.004,118.312 L 257.074,118.242 L 257.148,118.242 L 257.219,118.168 L 257.293,118.023 L 257.363,118.023 L 257.508,117.953 L 257.578,117.883 L 257.652,117.883 L 257.723,117.809 L 257.797,117.738 L 257.867,117.738 L 258.012,117.664 L 258.082,117.52 L 258.156,117.449 L 258.227,117.449 L 258.301,117.379 L 258.371,117.305 L 258.516,117.305 L 258.586,117.234 L 258.66,117.16 L 258.73,117.16 L 258.805,117.016 L 258.875,116.945 L 259.02,116.945 L 259.094,116.875 L 259.164,116.801 L 259.234,116.801 L 259.309,116.73 L 259.379,116.656 L 259.453,116.656 L 259.598,116.512 L 259.668,116.441 L 259.738,116.441 L 259.812,116.367 L 259.883,116.297 L 259.957,116.297 L 260.102,116.227 L 260.172,116.152 L 260.242,116.152 L 260.316,116.082 L 260.387,115.938 L 260.461,115.938 L 260.605,115.863 L 260.676,115.793 L 260.746,115.793 L 260.82,115.723 L 260.891,115.648 L 260.965,115.648 L 261.109,115.578 L 261.18,115.434 L 261.25,115.434 L 261.324,115.359 L 261.395,115.359 L 261.469,115.289 L 261.539,115.219 L 261.684,115.219 L 261.758,115.145 L 261.828,115.074 L 261.898,115.074 L 261.973,114.93 L 262.043,114.855 L 262.188,114.855 L 262.262,114.785 L 262.332,114.715 L 262.402,114.715 L 262.477,114.641 L 262.547,114.641 L 262.691,114.57 L 262.766,114.426 L 262.836,114.426 L 262.906,114.352 L 262.98,114.281 L 263.051,114.281 L 263.195,114.211 L 263.27,114.137 L 263.34,114.137 L 263.41,114.066 L 263.484,114.066 L 263.555,113.922 L 263.629,113.848 L 263.773,113.848 L 263.844,113.777 L 263.914,113.777 L 263.988,113.703 L 264.059,113.633 L 264.133,113.633 L 264.277,113.562 L 264.348,113.488 L 264.418,113.488 L 264.492,113.344 L 264.562,113.344 L 264.637,113.273 L 264.781,113.199 L 264.852,113.199 L 264.926,113.129 L 264.996,113.129 L 265.066,113.059 L 265.141,112.984 L 265.285,112.984 L 265.355,112.84 L 265.43,112.84 L 265.5,112.77 L 265.57,112.695 L 265.645,112.695 L 265.715,112.625 L 265.859,112.625 L 265.934,112.555 L 266.004,112.48 L 266.074,112.48 L 266.148,112.336 L 266.219,112.336 L 266.363,112.266 L 266.438,112.191 L 266.508,112.191 L 266.578,112.121 L 266.652,112.121 L 266.723,112.051 L 266.867,111.977 L 266.941,111.977 L 267.012,111.832 L 267.082,111.832 L 267.156,111.762 L 267.227,111.762 L 267.371,111.688 L 267.445,111.688 L 267.516,111.617 L 267.586,111.547 L 267.66,111.547 L 267.73,111.473 L 267.805,111.473 L 267.949,111.402 L 268.02,111.258 L 268.094,111.258 L 268.164,111.184 L 268.234,111.184 L 268.309,111.113 L 268.453,111.113 L 268.523,111.043 L 268.598,110.969 L 268.668,110.969 L 268.738,110.898 L 268.812,110.898 L 268.957,110.754 L 269.027,110.754 L 269.102,110.68 L 269.172,110.68 L 269.242,110.609 L 269.316,110.535 L 269.461,110.535 L 269.531,110.465 L 269.605,110.465 L 269.676,110.395 L 269.746,110.395 L 269.82,110.25 L 269.891,110.25 L 270.035,110.176 L 270.109,110.105 L 270.18,110.105 L 270.25,110.031 L 270.324,110.031 L 270.395,109.961 L 270.539,109.961 L 270.613,109.891 L 270.684,109.891 L 270.758,109.746 L 270.828,109.746 L 270.898,109.672 L 271.043,109.672 L 271.117,109.602 L 271.188,109.527 L 271.262,109.527 L 271.332,109.457 L 271.402,109.457 L 271.547,109.387 L 271.621,109.387 L 271.691,109.312 L 271.766,109.312 L 271.836,109.168 L 271.906,109.168 L 271.98,109.098 L 272.125,109.098 L 272.195,109.023 L 272.27,109.023 L 272.34,108.953 L 272.41,108.953 L 272.484,108.883 L 272.629,108.883 L 272.699,108.809 L 272.773,108.664 L 272.844,108.664 L 272.914,108.594 L 272.988,108.594 L 273.133,108.52 L 273.203,108.52 L 273.277,108.449 L 273.348,108.449 L 273.418,108.379 L 273.492,108.379 L 273.637,108.305 L 273.707,108.305 L 273.781,108.16 L 273.852,108.16 L 273.926,108.09 L 273.996,108.09 L 274.066,108.016 L 274.211,108.016 L 274.285,107.945 L 274.355,107.945 L 274.43,107.875 L 274.5,107.875 L 274.57,107.801 L 274.715,107.801 L 274.789,107.656 L 274.859,107.656 L 274.934,107.586 L 275.004,107.586 L 275.074,107.512 L 275.219,107.512 L 275.293,107.441 L 275.363,107.441 L 275.438,107.367 L 275.508,107.367 L 275.578,107.297 L 275.723,107.297 L 275.797,107.227 L 275.867,107.227 L 275.941,107.082 L 276.012,107.082 L 276.082,107.082 L 276.156,107.008 L 276.301,106.938 L 276.371,106.938 L 276.445,106.938 L 276.516,106.863 L 276.586,106.863 L 276.66,106.793 L 276.805,106.793 L 276.875,106.723 L 276.949,106.723 L 277.02,106.578 L 277.094,106.578 L 277.164,106.504 L 277.309,106.504 L 277.379,106.434 L 277.453,106.434 L 277.523,106.359 L 277.598,106.359 L 277.668,106.359 L 277.812,106.289 L 277.883,106.289 L 277.957,106.219 L 278.027,106.219 L 278.102,106.074 L 278.172,106.074 L 278.242,106 L 278.387,106 L 278.461,105.93 L 278.531,105.93 L 278.605,105.855 L 278.676,105.855 L 278.746,105.855 L 278.891,105.785 L 278.965,105.785 L 279.035,105.715 L 279.109,105.715 L 279.18,105.57 L 279.25,105.57 L 279.395,105.496 L 279.469,105.496 L 279.539,105.426 L 279.613,105.426 L 279.684,105.426 L 279.758,105.352 L 279.898,105.352 L 279.973,105.281 L 280.043,105.281 L 280.117,105.211 L 280.188,105.211 L 280.262,105.211 L 280.402,105.137 L 280.477,105.137 L 280.547,104.992 L 280.621,104.992 L 280.691,104.922 L 280.766,104.922 L 280.836,104.848 L 280.98,104.848" />
    <path
       style="fill:none;stroke:#020aff;stroke-linejoin:round"
       id="path2733"
       d="M 231.301,139.625 L 231.371,139.555 L 231.445,139.48 L 231.586,139.48 L 231.66,139.41 L 231.73,139.336 L 231.805,139.191 L 231.875,139.121 L 231.949,139.051 L 232.094,138.977 L 232.164,138.906 L 232.234,138.832 L 232.309,138.688 L 232.379,138.617 L 232.453,138.547 L 232.598,138.473 L 232.668,138.402 L 232.738,138.402 L 232.883,138.184 L 232.812,138.184 L 232.883,138.184 L 232.957,138.113 L 233.102,138.043 L 233.172,137.969 L 233.242,137.898 L 233.316,137.824 L 233.387,137.68 L 233.461,137.609 L 233.531,137.535 L 233.676,137.465 L 233.746,137.395 L 233.82,137.32 L 233.891,137.25 L 233.965,137.25 L 234.035,137.105 L 234.18,137.031 L 234.25,136.961 L 234.324,136.891 L 234.395,136.816 L 234.469,136.746 L 234.539,136.602 L 234.684,136.527 L 234.758,136.457 L 234.828,136.387 L 234.898,136.312 L 234.973,136.242 L 235.043,136.098 L 235.188,136.098 L 235.262,136.023 L 235.332,135.953 L 235.402,135.883 L 235.477,135.809 L 235.547,135.738 L 235.621,135.594 L 235.766,135.52 L 235.836,135.449 L 235.906,135.379 L 235.98,135.305 L 236.051,135.305 L 236.125,135.234 L 236.27,135.09 L 236.34,135.016 L 236.41,134.945 L 236.484,134.875 L 236.555,134.801 L 236.629,134.73 L 236.773,134.656 L 236.844,134.512 L 236.914,134.512 L 236.988,134.441 L 237.059,134.367 L 237.133,134.297 L 237.277,134.227 L 237.348,134.152 L 237.418,134.008 L 237.492,133.938 L 237.562,133.863 L 237.637,133.793 L 237.707,133.793 L 237.852,133.723 L 237.926,133.648 L 237.996,133.504 L 238.066,133.434 L 238.141,133.359 L 238.211,133.289 L 238.355,133.219 L 238.43,133.145 L 238.5,133.145 L 238.645,132.93 L 238.57,132.93 L 238.645,132.93 L 238.715,132.855 L 238.859,132.785 L 238.934,132.715 L 239.004,132.641 L 239.074,132.57 L 239.148,132.426 L 239.219,132.426 L 239.438,132.281 L 239.363,132.281 L 239.438,132.281 L 239.508,132.211 L 239.578,132.137 L 239.652,132.066 L 239.723,131.922 L 239.797,131.848 L 239.941,131.777 L 240.012,131.777 L 240.082,131.703 L 240.156,131.633 L 240.227,131.562 L 240.301,131.418 L 240.445,131.344 L 240.516,131.273 L 240.586,131.199 L 240.66,131.199 L 240.73,131.129 L 240.805,131.059 L 240.949,130.914 L 241.02,130.84 L 241.094,130.77 L 241.164,130.695 L 241.234,130.625 L 241.309,130.625 L 241.453,130.555 L 241.523,130.48 L 241.598,130.336 L 241.668,130.266 L 241.738,130.191 L 241.812,130.121 L 241.883,130.121 L 242.027,130.051 L 242.102,129.977 L 242.172,129.832 L 242.242,129.762 L 242.316,129.688 L 242.387,129.617 L 242.531,129.617 L 242.605,129.547 L 242.676,129.473 L 242.746,129.328 L 242.82,129.258 L 242.891,129.184 L 243.035,129.113 L 243.109,129.113 L 243.18,129.043 L 243.25,128.969 L 243.324,128.824 L 243.395,128.754 L 243.539,128.68 L 243.613,128.68 L 243.684,128.609 L 243.758,128.535 L 243.828,128.465 L 243.898,128.395 L 243.973,128.25 L 244.117,128.176 L 244.188,128.176 L 244.262,128.105 L 244.332,128.031 L 244.402,127.961 L 244.477,127.891 L 244.621,127.746 L 244.691,127.746 L 244.766,127.672 L 244.836,127.602 L 244.906,127.527 L 244.98,127.457 L 245.125,127.457 L 245.195,127.387 L 245.27,127.242 L 245.34,127.168 L 245.41,127.098 L 245.484,127.023 L 245.629,127.023 L 245.699,126.953 L 245.773,126.883 L 245.844,126.738 L 245.914,126.664 L 245.988,126.594 L 246.059,126.594 L 246.203,126.52 L 246.277,126.449 L 246.348,126.379 L 246.418,126.305 L 246.492,126.305 L 246.562,126.16 L 246.707,126.09 L 246.781,126.016 L 246.852,125.945 L 246.926,125.875 L 246.996,125.875 L 247.066,125.801 L 247.211,125.656 L 247.285,125.586 L 247.355,125.512 L 247.43,125.512 L 247.5,125.441 L 247.57,125.367 L 247.715,125.297 L 247.789,125.152 L 247.859,125.152 L 247.934,125.082 L 248.004,125.008 L 248.074,124.938 L 248.148,124.863 L 248.293,124.863 L 248.363,124.793 L 248.438,124.648 L 248.508,124.578 L 248.578,124.504 L 248.652,124.504 L 248.797,124.434 L 248.867,124.359 L 248.941,124.289 L 249.012,124.219 L 249.082,124.219 L 249.156,124.074 L 249.301,124 L 249.371,123.93 L 249.445,123.93 L 249.516,123.855 L 249.586,123.785 L 249.66,123.715 L 249.805,123.57 L 249.875,123.57 L 249.949,123.496 L 250.02,123.426 L 250.094,123.352 L 250.164,123.352 L 250.234,123.281 L 250.379,123.211 L 250.453,123.066 L 250.523,122.992 L 250.598,122.992 L 250.668,122.922 L 250.738,122.848 L 250.883,122.777 L 250.957,122.777 L 251.027,122.703 L 251.102,122.562 L 251.172,122.488 L 251.242,122.488 L 251.387,122.418 L 251.461,122.344 L 251.531,122.273 L 251.605,122.273 L 251.676,122.199 L 251.746,122.129 L 251.891,121.984 L 251.965,121.914 L 252.035,121.914 L 252.109,121.84 L 252.18,121.77 L 252.25,121.695 L 252.395,121.695 L 252.469,121.625 L 252.539,121.48 L 252.613,121.41 L 252.684,121.41 L 252.758,121.336 L 252.828,121.266 L 252.973,121.191 L 253.043,121.191 L 253.117,121.121 L 253.188,120.977 L 253.262,120.906 L 253.332,120.906 L 253.477,120.832 L 253.547,120.762 L 253.621,120.762 L 253.691,120.688 L 253.766,120.617 L 253.836,120.473 L 253.98,120.473 L 254.051,120.402 L 254.125,120.328 L 254.195,120.258 L 254.27,120.258 L 254.34,120.184 L 254.484,120.113 L 254.555,120.113 L 254.629,120.043 L 254.699,119.898 L 254.773,119.824 L 254.844,119.824 L 254.914,119.754 L 255.059,119.68 L 255.133,119.609 L 255.203,119.609 L 255.277,119.535 L 255.348,119.395 L 255.418,119.395 L 255.562,119.32 L 255.637,119.25 L 255.707,119.176 L 255.781,119.176 L 255.852,119.105 L 255.926,119.031 L 256.066,118.891" />
    <path
       style="fill:none;stroke:#020aff;stroke-linejoin:round"
       id="path2735"
       d="M 206.387,163.891 L 206.461,163.816 L 206.531,163.746 L 206.676,163.746 L 206.82,163.527 L 206.82,163.457 L 206.891,163.457 L 206.965,163.387 L 207.035,163.312 L 207.109,163.242 L 207.25,163.168 L 207.324,163.023 L 207.395,162.953 L 207.469,162.883 L 207.539,162.809 L 207.613,162.738 L 207.758,162.664 L 207.828,162.52 L 207.898,162.449 L 207.973,162.379 L 208.043,162.305 L 208.117,162.234 L 208.262,162.16 L 208.332,162.016 L 208.402,161.945 L 208.477,161.875 L 208.547,161.801 L 208.621,161.73 L 208.766,161.656 L 208.836,161.656 L 208.98,161.441 L 208.98,161.367 L 209.051,161.297 L 209.125,161.297 L 209.195,161.227 L 209.34,161.152 L 209.41,161.082 L 209.484,160.938 L 209.555,160.863 L 209.629,160.793 L 209.699,160.723 L 209.844,160.648 L 209.914,160.578 L 209.988,160.434 L 210.059,160.359 L 210.133,160.289 L 210.203,160.219 L 210.348,160.145 L 210.418,160.074 L 210.492,159.93 L 210.562,159.855 L 210.637,159.785 L 210.707,159.715 L 210.852,159.641 L 210.926,159.57 L 210.996,159.426 L 211.066,159.352 L 211.141,159.281 L 211.211,159.211 L 211.285,159.137 L 211.43,159.066 L 211.5,158.992 L 211.57,158.848 L 211.645,158.777 L 211.715,158.703 L 211.789,158.633 L 211.934,158.562 L 212.004,158.488 L 212.074,158.344 L 212.148,158.273 L 212.219,158.273 L 212.293,158.199 L 212.438,158.129 L 212.508,158.059 L 212.578,157.984 L 212.652,157.84 L 212.723,157.77 L 212.797,157.695 L 212.941,157.625 L 213.012,157.555 L 213.082,157.48 L 213.156,157.336 L 213.227,157.266 L 213.301,157.191 L 213.371,157.121 L 213.516,157.051 L 213.586,156.977 L 213.66,156.906 L 213.73,156.762 L 213.805,156.688 L 213.875,156.617 L 214.02,156.547 L 214.094,156.473 L 214.164,156.402 L 214.234,156.258 L 214.309,156.184 L 214.379,156.113 L 214.523,156.043 L 214.598,155.969 L 214.668,155.898 L 214.738,155.754 L 214.812,155.68 L 214.883,155.609 L 215.027,155.535 L 215.102,155.465 L 215.172,155.395 L 215.242,155.25 L 215.316,155.176 L 215.387,155.105 L 215.461,155.031 L 215.605,154.961 L 215.676,154.891 L 215.746,154.816 L 215.82,154.672 L 215.891,154.602 L 215.965,154.527 L 216.109,154.457 L 216.18,154.387 L 216.25,154.312 L 216.324,154.168 L 216.395,154.098 L 216.469,154.023 L 216.613,153.953 L 216.684,153.883 L 216.758,153.883 L 216.828,153.809 L 216.973,153.594 L 216.973,153.52 L 217.117,153.449 L 217.188,153.449 L 217.262,153.379 L 217.332,153.305 L 217.402,153.16 L 217.477,153.09 L 217.547,153.016 L 217.691,152.945 L 217.766,152.875 L 217.836,152.801 L 217.906,152.73 L 217.98,152.586 L 218.051,152.512 L 218.195,152.441 L 218.27,152.367 L 218.34,152.297 L 218.41,152.227 L 218.484,152.082 L 218.555,152.008 L 218.699,151.938 L 218.773,151.863 L 218.844,151.793 L 218.914,151.723 L 218.988,151.578 L 219.059,151.504 L 219.203,151.434 L 219.277,151.359 L 219.348,151.289 L 219.418,151.219 L 219.492,151.074 L 219.562,151 L 219.637,150.93 L 219.781,150.855 L 219.852,150.785 L 219.926,150.715 L 219.996,150.57 L 220.066,150.496 L 220.141,150.426 L 220.285,150.352 L 220.355,150.281 L 220.43,150.211 L 220.5,150.137 L 220.57,149.992 L 220.645,149.922 L 220.789,149.848 L 220.859,149.777 L 220.934,149.703 L 221.004,149.633 L 221.074,149.488 L 221.148,149.418 L 221.293,149.344 L 221.363,149.273 L 221.438,149.199 L 221.508,149.129 L 221.578,148.984 L 221.652,148.914 L 221.797,148.84 L 221.867,148.77 L 221.941,148.77 L 222.082,148.625 L 222.082,148.48 L 222.156,148.41 L 222.227,148.41 L 222.371,148.336 L 222.445,148.266 L 222.516,148.191 L 222.586,148.121 L 222.66,148.051 L 222.73,147.906 L 222.875,147.832 L 222.949,147.762 L 223.02,147.688 L 223.094,147.617 L 223.164,147.547 L 223.234,147.402 L 223.379,147.328 L 223.453,147.258 L 223.523,147.184 L 223.598,147.113 L 223.668,147.043 L 223.738,146.898 L 223.883,146.824 L 223.957,146.754 L 224.027,146.68 L 224.102,146.609 L 224.172,146.535 L 224.242,146.395 L 224.316,146.32 L 224.461,146.25 L 224.531,146.176 L 224.605,146.105 L 224.676,146.031 L 224.746,145.961 L 224.82,145.816 L 224.965,145.746 L 225.035,145.672 L 225.109,145.602 L 225.18,145.527 L 225.25,145.457 L 225.324,145.312 L 225.469,145.242 L 225.539,145.242 L 225.684,145.098 L 225.684,145.023 L 225.758,144.953 L 225.828,144.953 L 225.973,144.809 L 226.043,144.738 L 226.117,144.664 L 226.188,144.594 L 226.262,144.52 L 226.332,144.449 L 226.402,144.305 L 226.547,144.234 L 226.621,144.16 L 226.691,144.09 L 226.766,144.016 L 226.836,143.945 L 226.906,143.875 L 227.051,143.73 L 227.125,143.656 L 227.195,143.586 L 227.27,143.512 L 227.34,143.441 L 227.41,143.367 L 227.555,143.227 L 227.629,143.152 L 227.699,143.082 L 227.773,143.008 L 227.844,142.938 L 227.914,142.863 L 228.059,142.723 L 228.133,142.723 L 228.203,142.648 L 228.277,142.578 L 228.348,142.504 L 228.418,142.434 L 228.492,142.359 L 228.637,142.219 L 228.707,142.145 L 228.781,142.074 L 228.852,142 L 228.926,141.93 L 228.996,141.855 L 229.141,141.785 L 229.211,141.641 L 229.285,141.57 L 229.355,141.496 L 229.43,141.426 L 229.5,141.352 L 229.645,141.281 L 229.715,141.137 L 229.789,141.066 L 229.859,141.066 L 230.004,140.922 L 230.004,140.848 L 230.148,140.848 L 230.219,140.777 L 230.293,140.633 L 230.363,140.562 L 230.438,140.488 L 230.508,140.418 L 230.578,140.344 L 230.723,140.273 L 230.797,140.129 L 230.867,140.059 L 230.941,139.984 L 231.012,139.914 L 231.082,139.84 L 231.227,139.77 L 231.301,139.695 L 231.371,139.555" />
    <path
       style="fill:none;stroke:#020aff;stroke-linejoin:round"
       id="path2737"
       d="M 181.547,185.273 L 181.621,185.199 L 181.691,185.129 L 181.836,185.059 L 181.906,185.059 L 181.98,184.984 L 182.051,184.914 L 182.125,184.77 L 182.195,184.77 L 182.34,184.695 L 182.41,184.625 L 182.484,184.555 L 182.555,184.555 L 182.629,184.48 L 182.699,184.41 L 182.844,184.266 L 182.914,184.266 L 182.988,184.191 L 183.059,184.121 L 183.133,184.051 L 183.203,184.051 L 183.277,183.977 L 183.418,183.906 L 183.492,183.832 L 183.562,183.832 L 183.637,183.688 L 183.707,183.617 L 183.781,183.547 L 183.926,183.547 L 183.996,183.473 L 184.066,183.402 L 184.141,183.328 L 184.211,183.328 L 184.285,183.184 L 184.43,183.113 L 184.5,183.043 L 184.57,182.969 L 184.645,182.969 L 184.715,182.898 L 184.789,182.824 L 184.859,182.68 L 185.004,182.68 L 185.074,182.609 L 185.148,182.535 L 185.219,182.465 L 185.293,182.465 L 185.363,182.395 L 185.508,182.32 L 185.578,182.176 L 185.652,182.105 L 185.723,182.105 L 185.797,182.031 L 185.867,181.961 L 186.012,181.891 L 186.082,181.816 L 186.156,181.816 L 186.227,181.746 L 186.301,181.602 L 186.371,181.527 L 186.516,181.457 L 186.586,181.457 L 186.66,181.387 L 186.73,181.312 L 186.805,181.242 L 186.875,181.242 L 186.949,181.098 L 187.094,181.023 L 187.164,180.953 L 187.234,180.883 L 187.309,180.883 L 187.379,180.809 L 187.453,180.738 L 187.598,180.594 L 187.668,180.52 L 187.738,180.52 L 187.812,180.449 L 187.883,180.379 L 187.957,180.305 L 188.102,180.234 L 188.172,180.234 L 188.242,180.09 L 188.316,180.016 L 188.387,179.945 L 188.461,179.875 L 188.531,179.875 L 188.676,179.801 L 188.746,179.73 L 188.82,179.656 L 188.891,179.512 L 188.965,179.441 L 189.035,179.441 L 189.18,179.367 L 189.25,179.297 L 189.324,179.227 L 189.395,179.152 L 189.469,179.008 L 189.539,179.008 L 189.684,178.938 L 189.758,178.863 L 189.828,178.793 L 189.898,178.723 L 189.973,178.723 L 190.043,178.648 L 190.117,178.504 L 190.262,178.434 L 190.332,178.359 L 190.402,178.289 L 190.477,178.289 L 190.547,178.219 L 190.621,178.145 L 190.766,178 L 190.836,177.93 L 190.906,177.855 L 190.98,177.855 L 191.051,177.785 L 191.125,177.715 L 191.27,177.641 L 191.34,177.57 L 191.41,177.426 L 191.484,177.426 L 191.555,177.352 L 191.629,177.281 L 191.699,177.211 L 191.844,177.137 L 191.914,177.066 L 191.988,176.922 L 192.059,176.922 L 192.133,176.848 L 192.203,176.777 L 192.348,176.703 L 192.418,176.633 L 192.492,176.562 L 192.562,176.418 L 192.637,176.418 L 192.707,176.344 L 192.852,176.273 L 192.926,176.199 L 192.996,176.129 L 193.066,176.059 L 193.141,175.914 L 193.211,175.914 L 193.285,175.84 L 193.43,175.77 L 193.5,175.695 L 193.57,175.625 L 193.645,175.555 L 193.715,175.48 L 193.789,175.48 L 193.934,175.336 L 194.004,175.266 L 194.074,175.191 L 194.148,175.121 L 194.219,175.051 L 194.293,174.977 L 194.438,174.832 L 194.508,174.832 L 194.578,174.762 L 194.652,174.688 L 194.723,174.617 L 194.797,174.547 L 194.867,174.473 L 195.012,174.328 L 195.082,174.328 L 195.156,174.258 L 195.227,174.184 L 195.301,174.113 L 195.371,174.043 L 195.516,173.969 L 195.586,173.824 L 195.66,173.754 L 195.73,173.754 L 195.805,173.68 L 195.875,173.609 L 196.02,173.535 L 196.094,173.465 L 196.164,173.395 L 196.234,173.25 L 196.309,173.176 L 196.379,173.105 L 196.453,173.105 L 196.598,173.031 L 196.668,172.961 L 196.738,172.891 L 196.812,172.746 L 196.883,172.672 L 196.957,172.602 L 197.102,172.527 L 197.172,172.457 L 197.242,172.457 L 197.316,172.387 L 197.387,172.242 L 197.461,172.168 L 197.605,172.098 L 197.676,172.023 L 197.746,171.953 L 197.82,171.883 L 197.891,171.738 L 197.965,171.664 L 198.035,171.594 L 198.18,171.594 L 198.25,171.52 L 198.324,171.449 L 198.395,171.379 L 198.469,171.305 L 198.539,171.16 L 198.684,171.09 L 198.758,171.016 L 198.828,170.945 L 198.898,170.875 L 198.973,170.875 L 199.043,170.801 L 199.188,170.656 L 199.262,170.586 L 199.332,170.512 L 199.402,170.441 L 199.477,170.367 L 199.547,170.297 L 199.621,170.152 L 199.766,170.082 L 199.836,170.008 L 199.906,170.008 L 199.98,169.938 L 200.051,169.863 L 200.125,169.793 L 200.27,169.648 L 200.34,169.578 L 200.41,169.504 L 200.484,169.434 L 200.555,169.359 L 200.629,169.289 L 200.773,169.145 L 200.844,169.074 L 200.914,169.074 L 201.059,168.93 L 200.988,168.93 L 201.059,168.93 L 201.133,168.855 L 201.277,168.785 L 201.348,168.715 L 201.418,168.57 L 201.492,168.496 L 201.562,168.426 L 201.637,168.352 L 201.707,168.281 L 201.852,168.211 L 201.926,168.066 L 201.996,167.992 L 202.066,167.922 L 202.141,167.922 L 202.211,167.848 L 202.355,167.777 L 202.43,167.703 L 202.5,167.562 L 202.57,167.488 L 202.645,167.418 L 202.715,167.344 L 202.859,167.273 L 202.934,167.199 L 203.004,167.059 L 203.074,166.984 L 203.148,166.914 L 203.219,166.84 L 203.293,166.77 L 203.438,166.695 L 203.508,166.695 L 203.578,166.625 L 203.652,166.48 L 203.723,166.41 L 203.797,166.336 L 203.941,166.266 L 204.012,166.191 L 204.082,166.121 L 204.156,165.977 L 204.227,165.906 L 204.301,165.832 L 204.445,165.762 L 204.516,165.688 L 204.586,165.617 L 204.66,165.473 L 204.73,165.402 L 204.805,165.328 L 204.875,165.328 L 205.02,165.258 L 205.094,165.184 L 205.164,165.113 L 205.234,164.969 L 205.309,164.898 L 205.379,164.824 L 205.523,164.754 L 205.598,164.68 L 205.668,164.609 L 205.738,164.535 L 205.812,164.395 L 205.883,164.32 L 206.027,164.25 L 206.102,164.176 L 206.172,164.105 L 206.242,164.031 L 206.316,163.891 L 206.387,163.816" />
    <path
       style="fill:none;stroke:#020aff;stroke-linejoin:round"
       id="path2739"
       d="M 156.637,200.031 L 156.707,200.031 L 156.781,199.961 L 156.926,199.961 L 156.996,199.891 L 157.066,199.891 L 157.141,199.816 L 157.211,199.816 L 157.285,199.816 L 157.43,199.746 L 157.5,199.746 L 157.57,199.602 L 157.645,199.602 L 157.715,199.527 L 157.789,199.527 L 157.859,199.457 L 158.004,199.457 L 158.074,199.387 L 158.148,199.387 L 158.219,199.312 L 158.293,199.312 L 158.363,199.242 L 158.508,199.242 L 158.578,199.168 L 158.652,199.168 L 158.723,199.168 L 158.797,199.023 L 158.867,199.023 L 159.012,198.953 L 159.082,198.953 L 159.156,198.883 L 159.227,198.883 L 159.301,198.809 L 159.371,198.809 L 159.445,198.738 L 159.586,198.738 L 159.66,198.664 L 159.73,198.664 L 159.805,198.52 L 159.875,198.52 L 159.949,198.449 L 160.094,198.449 L 160.164,198.379 L 160.234,198.379 L 160.309,198.305 L 160.379,198.305 L 160.453,198.234 L 160.598,198.234 L 160.668,198.16 L 160.738,198.16 L 160.812,198.016 L 160.883,198.016 L 160.957,197.945 L 161.027,197.945 L 161.172,197.875 L 161.242,197.875 L 161.316,197.801 L 161.387,197.801 L 161.461,197.73 L 161.531,197.73 L 161.676,197.656 L 161.746,197.656 L 161.82,197.512 L 161.891,197.512 L 161.965,197.441 L 162.035,197.441 L 162.18,197.367 L 162.25,197.367 L 162.324,197.297 L 162.395,197.297 L 162.469,197.227 L 162.539,197.227 L 162.613,197.152 L 162.754,197.152 L 162.828,197.082 L 162.898,197.082 L 162.973,196.938 L 163.043,196.863 L 163.117,196.863 L 163.262,196.793 L 163.332,196.793 L 163.402,196.723 L 163.477,196.723 L 163.547,196.648 L 163.621,196.648 L 163.766,196.578 L 163.836,196.578 L 163.906,196.434 L 163.98,196.434 L 164.051,196.359 L 164.125,196.359 L 164.195,196.289 L 164.34,196.219 L 164.41,196.219 L 164.484,196.145 L 164.555,196.145 L 164.629,196.074 L 164.699,196.074 L 164.844,195.93 L 164.914,195.93 L 164.988,195.855 L 165.059,195.855 L 165.133,195.785 L 165.203,195.785 L 165.348,195.715 L 165.418,195.641 L 165.492,195.641 L 165.562,195.57 L 165.637,195.57 L 165.707,195.426 L 165.852,195.426 L 165.926,195.352 L 165.996,195.352 L 166.066,195.281 L 166.141,195.211 L 166.211,195.211 L 166.285,195.137 L 166.43,195.137 L 166.5,195.066 L 166.57,195.066 L 166.645,194.922 L 166.715,194.922 L 166.789,194.848 L 166.934,194.777 L 167.004,194.777 L 167.074,194.703 L 167.148,194.703 L 167.219,194.633 L 167.293,194.633 L 167.438,194.562 L 167.508,194.488 L 167.578,194.488 L 167.652,194.344 L 167.723,194.344 L 167.797,194.273 L 167.867,194.199 L 168.012,194.199 L 168.082,194.129 L 168.156,194.129 L 168.227,194.059 L 168.301,194.059 L 168.371,193.984 L 168.516,193.84 L 168.586,193.84 L 168.66,193.77 L 168.73,193.77 L 168.805,193.695 L 168.875,193.695 L 169.02,193.625 L 169.094,193.555 L 169.164,193.555 L 169.234,193.48 L 169.309,193.336 L 169.379,193.336 L 169.453,193.266 L 169.598,193.266 L 169.668,193.191 L 169.738,193.191 L 169.812,193.121 L 169.883,193.051 L 169.957,193.051 L 170.102,192.977 L 170.172,192.977 L 170.242,192.832 L 170.316,192.762 L 170.387,192.762 L 170.461,192.688 L 170.605,192.617 L 170.676,192.617 L 170.746,192.547 L 170.82,192.547 L 170.891,192.473 L 170.965,192.402 L 171.035,192.402 L 171.18,192.258 L 171.25,192.258 L 171.324,192.184 L 171.395,192.113 L 171.469,192.113 L 171.539,192.043 L 171.684,191.969 L 171.758,191.969 L 171.828,191.898 L 171.898,191.898 L 171.973,191.754 L 172.043,191.68 L 172.188,191.68 L 172.262,191.609 L 172.332,191.535 L 172.402,191.535 L 172.477,191.465 L 172.547,191.465 L 172.621,191.395 L 172.766,191.25 L 172.836,191.25 L 172.906,191.176 L 172.98,191.105 L 173.051,191.105 L 173.125,191.031 L 173.27,191.031 L 173.34,190.961 L 173.41,190.891 L 173.484,190.891 L 173.555,190.746 L 173.629,190.672 L 173.773,190.672 L 173.844,190.602 L 173.914,190.527 L 173.988,190.527 L 174.059,190.457 L 174.133,190.387 L 174.203,190.387 L 174.348,190.312 L 174.418,190.168 L 174.492,190.168 L 174.562,190.098 L 174.637,190.023 L 174.707,190.023 L 174.852,189.953 L 174.926,189.883 L 174.996,189.883 L 175.066,189.809 L 175.141,189.664 L 175.211,189.664 L 175.355,189.594 L 175.43,189.594 L 175.5,189.52 L 175.57,189.449 L 175.645,189.379 L 175.715,189.379 L 175.789,189.305 L 175.934,189.16 L 176.004,189.16 L 176.074,189.09 L 176.148,189.09 L 176.219,189.016 L 176.293,188.945 L 176.438,188.875 L 176.508,188.875 L 176.578,188.801 L 176.652,188.656 L 176.723,188.656 L 176.797,188.586 L 176.941,188.512 L 177.012,188.512 L 177.082,188.441 L 177.156,188.367 L 177.227,188.367 L 177.301,188.297 L 177.371,188.227 L 177.516,188.227 L 177.586,188.082 L 177.66,188.008 L 177.73,188.008 L 177.805,187.938 L 177.875,187.863 L 178.02,187.793 L 178.094,187.793 L 178.164,187.723 L 178.234,187.578 L 178.309,187.578 L 178.379,187.504 L 178.523,187.434 L 178.598,187.359 L 178.668,187.359 L 178.738,187.289 L 178.812,187.219 L 178.883,187.219 L 179.027,187.074 L 179.102,187 L 179.172,187 L 179.242,186.93 L 179.316,186.855 L 179.387,186.785 L 179.461,186.785 L 179.605,186.715 L 179.676,186.57 L 179.746,186.57 L 179.82,186.496 L 179.891,186.426 L 179.965,186.352 L 180.109,186.352 L 180.18,186.281 L 180.25,186.211 L 180.324,186.211 L 180.395,186.137 L 180.469,185.992 L 180.613,185.922 L 180.684,185.922 L 180.758,185.848 L 180.828,185.777 L 180.898,185.703 L 180.973,185.703 L 181.043,185.633 L 181.188,185.488 L 181.262,185.488 L 181.332,185.418 L 181.402,185.344 L 181.477,185.273 L 181.547,185.273" />
    <path
       style="fill:none;stroke:#020aff;stroke-linejoin:round"
       id="path2741"
       d="M 131.723,208.602 L 131.797,208.602 L 131.867,208.527 L 132.012,208.527 L 132.082,208.527 L 132.156,208.527 L 132.227,208.457 L 132.301,208.457 L 132.371,208.457 L 132.445,208.457 L 132.586,208.387 L 132.66,208.387 L 132.73,208.387 L 132.805,208.387 L 132.875,208.312 L 132.949,208.312 L 133.094,208.312 L 133.164,208.312 L 133.234,208.242 L 133.309,208.242 L 133.379,208.242 L 133.453,208.242 L 133.598,208.168 L 133.668,208.168 L 133.738,208.168 L 133.812,208.023 L 133.883,208.023 L 133.957,208.023 L 134.027,208.023 L 134.172,207.953 L 134.242,207.953 L 134.316,207.953 L 134.387,207.953 L 134.461,207.883 L 134.531,207.883 L 134.676,207.883 L 134.746,207.883 L 134.82,207.809 L 134.891,207.809 L 134.965,207.809 L 135.035,207.809 L 135.18,207.738 L 135.25,207.738 L 135.324,207.738 L 135.395,207.664 L 135.469,207.664 L 135.539,207.664 L 135.613,207.664 L 135.754,207.52 L 135.828,207.52 L 135.898,207.52 L 135.973,207.52 L 136.043,207.449 L 136.117,207.449 L 136.262,207.449 L 136.332,207.379 L 136.402,207.379 L 136.477,207.379 L 136.547,207.379 L 136.621,207.305 L 136.766,207.305 L 136.836,207.305 L 136.906,207.234 L 136.98,207.234 L 137.051,207.234 L 137.125,207.234 L 137.195,207.16 L 137.34,207.16 L 137.41,207.16 L 137.484,207.016 L 137.555,207.016 L 137.629,207.016 L 137.699,207.016 L 137.844,206.945 L 137.914,206.945 L 137.988,206.945 L 138.059,206.875 L 138.133,206.875 L 138.203,206.875 L 138.348,206.875 L 138.418,206.801 L 138.492,206.801 L 138.562,206.801 L 138.637,206.73 L 138.707,206.73 L 138.781,206.73 L 138.926,206.73 L 138.996,206.656 L 139.066,206.656 L 139.141,206.656 L 139.211,206.512 L 139.285,206.512 L 139.43,206.512 L 139.5,206.441 L 139.57,206.441 L 139.645,206.441 L 139.715,206.441 L 139.789,206.367 L 139.934,206.367 L 140.004,206.367 L 140.074,206.297 L 140.148,206.297 L 140.219,206.297 L 140.293,206.227 L 140.363,206.227 L 140.508,206.227 L 140.578,206.152 L 140.652,206.152 L 140.723,206.152 L 140.797,206.152 L 140.867,206.082 L 141.012,206.082 L 141.082,206.082 L 141.156,205.938 L 141.227,205.938 L 141.301,205.938 L 141.371,205.863 L 141.516,205.863 L 141.586,205.863 L 141.66,205.793 L 141.73,205.793 L 141.805,205.793 L 141.875,205.723 L 141.949,205.723 L 142.094,205.723 L 142.164,205.648 L 142.234,205.648 L 142.309,205.648 L 142.379,205.578 L 142.453,205.578 L 142.598,205.578 L 142.668,205.578 L 142.738,205.434 L 142.812,205.434 L 142.883,205.434 L 142.957,205.359 L 143.102,205.359 L 143.172,205.359 L 143.242,205.289 L 143.316,205.289 L 143.387,205.289 L 143.461,205.219 L 143.605,205.219 L 143.676,205.219 L 143.746,205.145 L 143.82,205.145 L 143.891,205.145 L 143.965,205.074 L 144.035,205.074 L 144.18,205.074 L 144.25,204.93 L 144.324,204.93 L 144.395,204.93 L 144.469,204.855 L 144.539,204.855 L 144.684,204.785 L 144.754,204.785 L 144.828,204.785 L 144.898,204.715 L 144.973,204.715 L 145.043,204.715 L 145.188,204.641 L 145.262,204.641 L 145.332,204.641 L 145.402,204.57 L 145.477,204.57 L 145.547,204.57 L 145.621,204.426 L 145.766,204.426 L 145.836,204.426 L 145.906,204.352 L 145.98,204.352 L 146.051,204.352 L 146.125,204.281 L 146.27,204.281 L 146.34,204.211 L 146.41,204.211 L 146.484,204.211 L 146.555,204.137 L 146.629,204.137 L 146.773,204.137 L 146.844,204.066 L 146.914,204.066 L 146.988,204.066 L 147.059,203.992 L 147.133,203.992 L 147.203,203.992 L 147.348,203.848 L 147.418,203.848 L 147.492,203.777 L 147.562,203.777 L 147.637,203.777 L 147.707,203.703 L 147.852,203.703 L 147.926,203.703 L 147.996,203.633 L 148.066,203.633 L 148.141,203.562 L 148.211,203.562 L 148.355,203.562 L 148.43,203.488 L 148.5,203.488 L 148.57,203.488 L 148.645,203.344 L 148.715,203.344 L 148.789,203.273 L 148.934,203.273 L 149.004,203.273 L 149.074,203.199 L 149.148,203.199 L 149.219,203.199 L 149.293,203.129 L 149.438,203.129 L 149.508,203.059 L 149.578,203.059 L 149.652,203.059 L 149.723,202.984 L 149.797,202.984 L 149.941,202.84 L 150.012,202.84 L 150.082,202.84 L 150.156,202.77 L 150.227,202.77 L 150.301,202.695 L 150.371,202.695 L 150.516,202.695 L 150.586,202.625 L 150.66,202.625 L 150.73,202.555 L 150.805,202.555 L 150.875,202.555 L 151.02,202.48 L 151.094,202.48 L 151.164,202.336 L 151.234,202.336 L 151.309,202.336 L 151.379,202.266 L 151.523,202.266 L 151.598,202.191 L 151.668,202.191 L 151.738,202.191 L 151.812,202.121 L 151.883,202.121 L 151.957,202.051 L 152.102,202.051 L 152.172,202.051 L 152.242,201.977 L 152.316,201.977 L 152.387,201.906 L 152.461,201.906 L 152.605,201.762 L 152.676,201.762 L 152.746,201.762 L 152.82,201.688 L 152.891,201.688 L 152.965,201.617 L 153.109,201.617 L 153.18,201.617 L 153.25,201.547 L 153.324,201.547 L 153.395,201.473 L 153.469,201.473 L 153.539,201.402 L 153.684,201.402 L 153.754,201.402 L 153.828,201.258 L 153.898,201.258 L 153.973,201.184 L 154.043,201.184 L 154.188,201.113 L 154.262,201.113 L 154.332,201.113 L 154.402,201.043 L 154.477,201.043 L 154.547,200.969 L 154.691,200.969 L 154.766,200.898 L 154.836,200.898 L 154.906,200.898 L 154.98,200.754 L 155.051,200.754 L 155.125,200.68 L 155.27,200.68 L 155.34,200.609 L 155.41,200.609 L 155.484,200.535 L 155.555,200.535 L 155.629,200.535 L 155.773,200.465 L 155.844,200.465 L 155.914,200.395 L 155.988,200.395 L 156.059,200.25 L 156.133,200.25 L 156.277,200.176 L 156.348,200.176 L 156.418,200.176 L 156.492,200.105 L 156.562,200.105 L 156.637,200.031" />
    <path
       style="fill:none;stroke:#020aff;stroke-linejoin:round"
       id="path2743"
       d="M 106.812,213.066 L 106.883,213.066 L 106.957,213.066 L 107.027,213.066 L 107.172,213.066 L 107.242,213.066 L 107.316,212.992 L 107.387,212.992 L 107.461,212.992 L 107.531,212.992 L 107.676,212.992 L 107.746,212.992 L 107.82,212.992 L 107.891,212.992 L 107.965,212.922 L 108.035,212.922 L 108.18,212.922 L 108.25,212.922 L 108.324,212.922 L 108.395,212.922 L 108.469,212.922 L 108.539,212.922 L 108.613,212.777 L 108.754,212.777 L 108.828,212.777 L 108.898,212.777 L 108.973,212.777 L 109.043,212.777 L 109.117,212.777 L 109.262,212.703 L 109.332,212.703 L 109.402,212.703 L 109.477,212.703 L 109.547,212.703 L 109.621,212.703 L 109.766,212.703 L 109.836,212.703 L 109.906,212.633 L 109.98,212.633 L 110.051,212.633 L 110.125,212.633 L 110.195,212.633 L 110.34,212.633 L 110.41,212.633 L 110.484,212.562 L 110.555,212.562 L 110.629,212.562 L 110.699,212.562 L 110.844,212.562 L 110.914,212.562 L 110.988,212.562 L 111.059,212.562 L 111.133,212.488 L 111.203,212.488 L 111.348,212.488 L 111.418,212.488 L 111.492,212.488 L 111.562,212.488 L 111.637,212.488 L 111.707,212.418 L 111.781,212.418 L 111.926,212.418 L 111.996,212.418 L 112.066,212.418 L 112.141,212.418 L 112.211,212.418 L 112.285,212.273 L 112.43,212.273 L 112.5,212.273 L 112.57,212.273 L 112.645,212.273 L 112.715,212.273 L 112.789,212.273 L 112.934,212.199 L 113.004,212.199 L 113.074,212.199 L 113.148,212.199 L 113.219,212.199 L 113.293,212.199 L 113.363,212.129 L 113.508,212.129 L 113.578,212.129 L 113.652,212.129 L 113.723,212.129 L 113.797,212.129 L 113.867,212.129 L 114.012,212.059 L 114.082,212.059 L 114.156,212.059 L 114.227,212.059 L 114.301,212.059 L 114.371,212.059 L 114.516,212.059 L 114.586,211.984 L 114.66,211.984 L 114.73,211.984 L 114.805,211.984 L 114.875,211.984 L 114.949,211.984 L 115.094,211.914 L 115.164,211.914 L 115.234,211.914 L 115.309,211.914 L 115.379,211.914 L 115.453,211.914 L 115.598,211.77 L 115.668,211.77 L 115.738,211.77 L 115.812,211.77 L 115.883,211.77 L 115.957,211.77 L 116.102,211.77 L 116.172,211.695 L 116.242,211.695 L 116.316,211.695 L 116.387,211.695 L 116.461,211.695 L 116.531,211.695 L 116.676,211.625 L 116.746,211.625 L 116.82,211.625 L 116.891,211.625 L 116.965,211.625 L 117.035,211.625 L 117.18,211.555 L 117.25,211.555 L 117.324,211.555 L 117.395,211.555 L 117.469,211.555 L 117.539,211.555 L 117.684,211.48 L 117.754,211.48 L 117.828,211.48 L 117.898,211.48 L 117.973,211.48 L 118.043,211.48 L 118.117,211.41 L 118.262,211.41 L 118.332,211.41 L 118.402,211.41 L 118.477,211.41 L 118.547,211.41 L 118.621,211.266 L 118.766,211.266 L 118.836,211.266 L 118.906,211.266 L 118.98,211.266 L 119.051,211.266 L 119.125,211.191 L 119.27,211.191 L 119.34,211.191 L 119.41,211.191 L 119.484,211.191 L 119.555,211.121 L 119.629,211.121 L 119.699,211.121 L 119.844,211.121 L 119.914,211.121 L 119.988,211.121 L 120.059,211.051 L 120.133,211.051 L 120.203,211.051 L 120.348,211.051 L 120.418,211.051 L 120.492,211.051 L 120.562,210.977 L 120.637,210.977 L 120.707,210.977 L 120.852,210.977 L 120.926,210.977 L 120.996,210.906 L 121.066,210.906 L 121.141,210.906 L 121.211,210.906 L 121.285,210.906 L 121.43,210.762 L 121.5,210.762 L 121.57,210.762 L 121.645,210.762 L 121.715,210.762 L 121.789,210.762 L 121.934,210.688 L 122.004,210.688 L 122.074,210.688 L 122.148,210.688 L 122.219,210.688 L 122.293,210.617 L 122.438,210.617 L 122.508,210.617 L 122.578,210.617 L 122.652,210.617 L 122.723,210.547 L 122.797,210.547 L 122.941,210.547 L 123.012,210.547 L 123.082,210.547 L 123.156,210.473 L 123.227,210.473 L 123.301,210.473 L 123.371,210.473 L 123.516,210.473 L 123.586,210.402 L 123.66,210.402 L 123.73,210.402 L 123.805,210.402 L 123.875,210.402 L 124.02,210.402 L 124.094,210.328 L 124.164,210.328 L 124.234,210.328 L 124.309,210.328 L 124.379,210.184 L 124.523,210.184 L 124.598,210.184 L 124.668,210.184 L 124.738,210.184 L 124.812,210.113 L 124.883,210.113 L 124.957,210.113 L 125.102,210.113 L 125.172,210.113 L 125.242,210.043 L 125.316,210.043 L 125.387,210.043 L 125.461,210.043 L 125.605,210.043 L 125.676,209.969 L 125.746,209.969 L 125.82,209.969 L 125.891,209.969 L 125.965,209.969 L 126.109,209.898 L 126.18,209.898 L 126.25,209.898 L 126.324,209.898 L 126.395,209.824 L 126.469,209.824 L 126.539,209.824 L 126.684,209.824 L 126.754,209.824 L 126.828,209.68 L 126.898,209.68 L 126.973,209.68 L 127.043,209.68 L 127.188,209.68 L 127.262,209.609 L 127.332,209.609 L 127.402,209.609 L 127.477,209.609 L 127.547,209.535 L 127.691,209.535 L 127.766,209.535 L 127.836,209.535 L 127.906,209.535 L 127.98,209.465 L 128.051,209.465 L 128.125,209.465 L 128.27,209.465 L 128.34,209.395 L 128.41,209.395 L 128.484,209.395 L 128.555,209.395 L 128.629,209.395 L 128.773,209.32 L 128.844,209.32 L 128.914,209.32 L 128.988,209.32 L 129.059,209.176 L 129.133,209.176 L 129.277,209.176 L 129.348,209.176 L 129.418,209.176 L 129.492,209.105 L 129.562,209.105 L 129.637,209.105 L 129.707,209.105 L 129.852,209.031 L 129.926,209.031 L 129.996,209.031 L 130.066,209.031 L 130.141,208.961 L 130.211,208.961 L 130.355,208.961 L 130.43,208.961 L 130.5,208.891 L 130.57,208.891 L 130.645,208.891 L 130.715,208.891 L 130.859,208.816 L 130.934,208.816 L 131.004,208.816 L 131.074,208.816 L 131.148,208.816 L 131.219,208.672 L 131.293,208.672 L 131.438,208.672 L 131.508,208.672 L 131.578,208.602 L 131.652,208.602 L 131.723,208.602" />
    <path
       style="fill:none;stroke:#020aff;stroke-linejoin:round"
       id="path2745"
       d="M 81.898,215.227 L 81.973,215.227 L 82.043,215.227 L 82.117,215.227 L 82.262,215.227 L 82.332,215.227 L 82.402,215.227 L 82.477,215.227 L 82.547,215.227 L 82.621,215.227 L 82.691,215.227 L 82.836,215.227 L 82.906,215.227 L 82.98,215.227 L 83.051,215.227 L 83.125,215.227 L 83.195,215.152 L 83.34,215.152 L 83.41,215.152 L 83.484,215.152 L 83.555,215.152 L 83.629,215.152 L 83.699,215.152 L 83.844,215.152 L 83.914,215.152 L 83.988,215.152 L 84.059,215.152 L 84.133,215.152 L 84.203,215.152 L 84.277,215.152 L 84.418,215.152 L 84.492,215.082 L 84.562,215.082 L 84.637,215.082 L 84.707,215.082 L 84.781,215.082 L 84.926,215.082 L 84.996,215.082 L 85.066,215.082 L 85.141,215.082 L 85.211,215.082 L 85.285,215.082 L 85.43,215.082 L 85.5,215.082 L 85.57,215.082 L 85.645,215.082 L 85.715,215.082 L 85.789,214.938 L 85.934,214.938 L 86.004,214.938 L 86.074,214.938 L 86.148,214.938 L 86.219,214.938 L 86.293,214.938 L 86.363,214.938 L 86.508,214.938 L 86.578,214.938 L 86.652,214.938 L 86.723,214.938 L 86.797,214.938 L 86.867,214.938 L 87.012,214.938 L 87.082,214.863 L 87.156,214.863 L 87.227,214.863 L 87.301,214.863 L 87.371,214.863 L 87.516,214.863 L 87.586,214.863 L 87.66,214.863 L 87.73,214.863 L 87.805,214.863 L 87.875,214.863 L 87.949,214.863 L 88.094,214.863 L 88.164,214.863 L 88.234,214.793 L 88.309,214.793 L 88.379,214.793 L 88.453,214.793 L 88.598,214.793 L 88.668,214.793 L 88.738,214.793 L 88.812,214.793 L 88.883,214.793 L 88.957,214.793 L 89.102,214.793 L 89.172,214.793 L 89.242,214.793 L 89.316,214.793 L 89.387,214.723 L 89.461,214.723 L 89.531,214.723 L 89.676,214.723 L 89.746,214.723 L 89.82,214.723 L 89.891,214.723 L 89.965,214.723 L 90.035,214.723 L 90.18,214.723 L 90.25,214.723 L 90.324,214.723 L 90.395,214.723 L 90.469,214.648 L 90.539,214.648 L 90.684,214.648 L 90.754,214.648 L 90.828,214.648 L 90.898,214.648 L 90.973,214.648 L 91.043,214.648 L 91.117,214.648 L 91.262,214.648 L 91.332,214.648 L 91.402,214.648 L 91.477,214.648 L 91.547,214.578 L 91.621,214.578 L 91.766,214.578 L 91.836,214.578 L 91.906,214.578 L 91.98,214.578 L 92.051,214.578 L 92.125,214.578 L 92.27,214.578 L 92.34,214.578 L 92.41,214.578 L 92.484,214.578 L 92.555,214.434 L 92.629,214.434 L 92.699,214.434 L 92.844,214.434 L 92.914,214.434 L 92.988,214.434 L 93.059,214.434 L 93.133,214.434 L 93.203,214.434 L 93.348,214.434 L 93.418,214.434 L 93.492,214.434 L 93.562,214.359 L 93.637,214.359 L 93.707,214.359 L 93.852,214.359 L 93.926,214.359 L 93.996,214.359 L 94.066,214.359 L 94.141,214.359 L 94.211,214.359 L 94.285,214.359 L 94.43,214.359 L 94.5,214.359 L 94.57,214.289 L 94.645,214.289 L 94.715,214.289 L 94.789,214.289 L 94.934,214.289 L 95.004,214.289 L 95.074,214.289 L 95.148,214.289 L 95.219,214.289 L 95.293,214.289 L 95.438,214.289 L 95.508,214.219 L 95.578,214.219 L 95.652,214.219 L 95.723,214.219 L 95.797,214.219 L 95.867,214.219 L 96.012,214.219 L 96.082,214.219 L 96.156,214.219 L 96.227,214.219 L 96.301,214.219 L 96.371,214.219 L 96.516,214.145 L 96.586,214.145 L 96.66,214.145 L 96.73,214.145 L 96.805,214.145 L 96.875,214.145 L 97.02,214.145 L 97.094,214.145 L 97.164,214.145 L 97.234,214.145 L 97.309,214.074 L 97.379,214.074 L 97.453,214.074 L 97.598,214.074 L 97.668,214.074 L 97.738,214.074 L 97.812,214.074 L 97.883,214.074 L 97.957,214.074 L 98.102,214.074 L 98.172,214.074 L 98.242,214 L 98.316,214 L 98.387,214 L 98.461,214 L 98.605,214 L 98.676,214 L 98.746,214 L 98.82,214 L 98.891,214 L 98.965,214 L 99.035,213.855 L 99.18,213.855 L 99.25,213.855 L 99.324,213.855 L 99.395,213.855 L 99.469,213.855 L 99.539,213.855 L 99.684,213.855 L 99.754,213.855 L 99.828,213.855 L 99.898,213.785 L 99.973,213.785 L 100.043,213.785 L 100.188,213.785 L 100.262,213.785 L 100.332,213.785 L 100.402,213.785 L 100.477,213.785 L 100.547,213.785 L 100.691,213.785 L 100.766,213.715 L 100.836,213.715 L 100.906,213.715 L 100.98,213.715 L 101.051,213.715 L 101.125,213.715 L 101.27,213.715 L 101.34,213.715 L 101.41,213.715 L 101.484,213.715 L 101.555,213.641 L 101.629,213.641 L 101.773,213.641 L 101.844,213.641 L 101.914,213.641 L 101.988,213.641 L 102.059,213.641 L 102.133,213.641 L 102.277,213.641 L 102.348,213.57 L 102.418,213.57 L 102.492,213.57 L 102.562,213.57 L 102.637,213.57 L 102.707,213.57 L 102.852,213.57 L 102.926,213.57 L 102.996,213.57 L 103.066,213.496 L 103.141,213.496 L 103.211,213.496 L 103.355,213.496 L 103.43,213.496 L 103.5,213.496 L 103.57,213.496 L 103.645,213.496 L 103.715,213.496 L 103.859,213.352 L 103.934,213.352 L 104.004,213.352 L 104.074,213.352 L 104.148,213.352 L 104.219,213.352 L 104.293,213.352 L 104.438,213.352 L 104.508,213.352 L 104.578,213.281 L 104.652,213.281 L 104.723,213.281 L 104.797,213.281 L 104.941,213.281 L 105.012,213.281 L 105.082,213.281 L 105.156,213.281 L 105.227,213.211 L 105.301,213.211 L 105.445,213.211 L 105.516,213.211 L 105.586,213.211 L 105.66,213.211 L 105.73,213.211 L 105.805,213.211 L 105.875,213.211 L 106.02,213.137 L 106.094,213.137 L 106.164,213.137 L 106.234,213.137 L 106.309,213.137 L 106.379,213.137 L 106.523,213.137 L 106.598,213.137 L 106.668,213.066 L 106.738,213.066 L 106.812,213.066" />
    <path
       style="fill:none;stroke:#020aff;stroke-linejoin:round"
       id="path2747"
       d="M 56.988,216.305 L 57.059,216.305 L 57.133,216.305 L 57.203,216.305 L 57.277,216.305 L 57.418,216.305 L 57.492,216.305 L 57.562,216.305 L 57.637,216.305 L 57.707,216.305 L 57.781,216.305 L 57.926,216.305 L 57.996,216.305 L 58.066,216.305 L 58.141,216.305 L 58.211,216.305 L 58.285,216.234 L 58.43,216.234 L 58.5,216.234 L 58.57,216.234 L 58.645,216.234 L 58.715,216.234 L 58.789,216.234 L 58.859,216.234 L 59.004,216.234 L 59.074,216.234 L 59.148,216.234 L 59.219,216.234 L 59.293,216.234 L 59.363,216.234 L 59.508,216.234 L 59.578,216.234 L 59.652,216.234 L 59.723,216.234 L 59.797,216.234 L 59.867,216.234 L 60.012,216.234 L 60.082,216.234 L 60.156,216.234 L 60.227,216.234 L 60.301,216.234 L 60.371,216.234 L 60.445,216.234 L 60.586,216.234 L 60.66,216.234 L 60.73,216.234 L 60.805,216.234 L 60.875,216.234 L 60.949,216.16 L 61.094,216.16 L 61.164,216.16 L 61.234,216.16 L 61.309,216.16 L 61.379,216.16 L 61.453,216.16 L 61.598,216.16 L 61.668,216.16 L 61.738,216.16 L 61.812,216.16 L 61.883,216.16 L 61.957,216.16 L 62.027,216.16 L 62.172,216.16 L 62.242,216.16 L 62.316,216.16 L 62.387,216.16 L 62.461,216.16 L 62.531,216.16 L 62.676,216.16 L 62.746,216.16 L 62.82,216.16 L 62.891,216.16 L 62.965,216.16 L 63.035,216.16 L 63.18,216.16 L 63.25,216.16 L 63.324,216.16 L 63.395,216.16 L 63.469,216.16 L 63.539,216.016 L 63.613,216.016 L 63.754,216.016 L 63.828,216.016 L 63.898,216.016 L 63.973,216.016 L 64.043,216.016 L 64.117,216.016 L 64.262,216.016 L 64.332,216.016 L 64.402,216.016 L 64.477,216.016 L 64.547,216.016 L 64.621,216.016 L 64.766,216.016 L 64.836,216.016 L 64.906,216.016 L 64.98,216.016 L 65.051,216.016 L 65.125,216.016 L 65.27,216.016 L 65.34,216.016 L 65.41,216.016 L 65.484,216.016 L 65.555,216.016 L 65.629,216.016 L 65.699,216.016 L 65.844,216.016 L 65.914,215.945 L 65.988,215.945 L 66.059,215.945 L 66.133,215.945 L 66.203,215.945 L 66.348,215.945 L 66.418,215.945 L 66.492,215.945 L 66.562,215.945 L 66.637,215.945 L 66.707,215.945 L 66.852,215.945 L 66.926,215.945 L 66.996,215.945 L 67.066,215.945 L 67.141,215.945 L 67.211,215.945 L 67.285,215.945 L 67.43,215.945 L 67.5,215.945 L 67.57,215.945 L 67.645,215.945 L 67.715,215.945 L 67.789,215.945 L 67.934,215.945 L 68.004,215.945 L 68.074,215.875 L 68.148,215.875 L 68.219,215.875 L 68.293,215.875 L 68.438,215.875 L 68.508,215.875 L 68.578,215.875 L 68.652,215.875 L 68.723,215.875 L 68.797,215.875 L 68.867,215.875 L 69.012,215.875 L 69.082,215.875 L 69.156,215.875 L 69.227,215.875 L 69.301,215.875 L 69.371,215.875 L 69.516,215.875 L 69.586,215.875 L 69.66,215.875 L 69.73,215.875 L 69.805,215.875 L 69.875,215.875 L 70.02,215.875 L 70.094,215.875 L 70.164,215.801 L 70.234,215.801 L 70.309,215.801 L 70.379,215.801 L 70.453,215.801 L 70.598,215.801 L 70.668,215.801 L 70.738,215.801 L 70.812,215.801 L 70.883,215.801 L 70.957,215.801 L 71.102,215.801 L 71.172,215.801 L 71.242,215.801 L 71.316,215.801 L 71.387,215.801 L 71.461,215.801 L 71.605,215.801 L 71.676,215.801 L 71.746,215.801 L 71.82,215.801 L 71.891,215.801 L 71.965,215.801 L 72.035,215.73 L 72.18,215.73 L 72.25,215.73 L 72.324,215.73 L 72.395,215.73 L 72.469,215.73 L 72.539,215.73 L 72.684,215.73 L 72.754,215.73 L 72.828,215.73 L 72.898,215.73 L 72.973,215.73 L 73.043,215.73 L 73.188,215.73 L 73.262,215.73 L 73.332,215.73 L 73.402,215.73 L 73.477,215.73 L 73.547,215.73 L 73.621,215.73 L 73.766,215.73 L 73.836,215.73 L 73.906,215.656 L 73.98,215.656 L 74.051,215.656 L 74.125,215.656 L 74.27,215.656 L 74.34,215.656 L 74.41,215.656 L 74.484,215.656 L 74.555,215.656 L 74.629,215.656 L 74.773,215.656 L 74.844,215.656 L 74.914,215.656 L 74.988,215.656 L 75.059,215.656 L 75.133,215.656 L 75.203,215.656 L 75.348,215.656 L 75.418,215.656 L 75.492,215.656 L 75.562,215.656 L 75.637,215.586 L 75.707,215.586 L 75.852,215.586 L 75.926,215.586 L 75.996,215.586 L 76.066,215.586 L 76.141,215.586 L 76.211,215.586 L 76.355,215.586 L 76.43,215.586 L 76.5,215.586 L 76.57,215.586 L 76.645,215.586 L 76.715,215.586 L 76.789,215.586 L 76.934,215.586 L 77.004,215.586 L 77.074,215.586 L 77.148,215.586 L 77.219,215.586 L 77.293,215.441 L 77.438,215.441 L 77.508,215.441 L 77.578,215.441 L 77.652,215.441 L 77.723,215.441 L 77.797,215.441 L 77.941,215.441 L 78.012,215.441 L 78.082,215.441 L 78.156,215.441 L 78.227,215.441 L 78.301,215.441 L 78.445,215.441 L 78.516,215.441 L 78.586,215.441 L 78.66,215.441 L 78.73,215.441 L 78.805,215.441 L 78.875,215.367 L 79.02,215.367 L 79.094,215.367 L 79.164,215.367 L 79.234,215.367 L 79.309,215.367 L 79.379,215.367 L 79.523,215.367 L 79.598,215.367 L 79.668,215.367 L 79.738,215.367 L 79.812,215.367 L 79.883,215.367 L 80.027,215.367 L 80.102,215.367 L 80.172,215.367 L 80.242,215.367 L 80.316,215.367 L 80.387,215.297 L 80.461,215.297 L 80.605,215.297 L 80.676,215.297 L 80.746,215.297 L 80.82,215.297 L 80.891,215.297 L 80.965,215.297 L 81.109,215.297 L 81.18,215.297 L 81.25,215.297 L 81.324,215.297 L 81.395,215.297 L 81.469,215.297 L 81.613,215.297 L 81.684,215.297 L 81.754,215.297 L 81.828,215.227 L 81.898,215.227" />
    <path
       style="fill:none;stroke:#020aff;stroke-linejoin:round"
       id="path2749"
       d="M 54.754,216.379 L 54.828,216.379 L 54.898,216.379 L 54.973,216.379 L 55.043,216.379 L 55.117,216.379 L 55.262,216.379 L 55.332,216.305 L 55.402,216.305 L 55.477,216.305 L 55.547,216.305 L 55.621,216.305 L 55.691,216.305 L 55.836,216.305 L 55.906,216.305 L 55.98,216.305 L 56.051,216.305 L 56.125,216.305 L 56.195,216.305 L 56.34,216.305 L 56.41,216.305 L 56.484,216.305 L 56.555,216.305 L 56.629,216.305 L 56.699,216.305 L 56.844,216.305 L 56.914,216.305 L 56.988,216.305" />
  </g>
</svg>
